<svg width="100" height="100" viewBox="0 0 100 100" fill="none" xmlns="http://www.w3.org/2000/svg">
<g clip-path="url(#clip0_4_51811)">
<path d="M60.4383 100C63.7819 100 66.6977 97.0842 66.6977 93.7406V79.1223H70.8771C73.3852 79.1223 75.0566 77.4502 75.0566 74.9429V33.1908H24.9427V74.9432C24.9427 77.4509 26.6144 79.1227 29.1221 79.1227H33.3019V93.741C33.3019 97.0846 36.217 100 39.5613 100C42.9045 100 45.82 97.0846 45.82 93.741V79.1227H54.1793V93.741C54.1789 97.0842 57.0947 100 60.4383 100ZM85.4958 74.9432C88.8394 74.9432 91.7545 72.0277 91.7545 68.6838V39.4475C91.7545 36.1217 88.8394 33.1908 85.4958 33.1908C82.1519 33.1908 79.2364 36.1217 79.2364 39.4475V68.6838C79.2364 72.0274 82.1515 74.9432 85.4958 74.9432ZM14.5038 74.9432C17.8477 74.9432 20.7632 72.0277 20.7632 68.6838V39.4475C20.7632 36.1217 17.8481 33.1908 14.5038 33.1908C11.1602 33.1908 8.24512 36.1217 8.24512 39.4475V68.6838C8.24512 72.0274 11.1602 74.9432 14.5038 74.9432ZM70.0409 0.630675C69.2053 -0.210225 67.9614 -0.210225 67.1258 0.630675L61.5201 6.21765L61.2615 6.47593C57.9376 4.81148 54.211 3.98026 50.0609 3.97225L50.0001 3.97158H49.9995L49.9381 3.97225C45.7883 3.98026 42.0616 4.81148 38.7381 6.47593L38.4788 6.21765L32.8735 0.630675C32.0372 -0.210225 30.7939 -0.210225 29.9584 0.630675C29.1221 1.4669 29.1221 2.7079 29.9584 3.54346L35.3808 8.96693C33.6336 10.1335 32.0493 11.561 30.6714 13.1938C27.3729 17.1036 25.269 22.1921 24.9797 27.7053C24.977 27.7627 24.9713 27.8194 24.9687 27.8768C24.9511 28.2538 24.9424 28.631 24.9427 29.0084H75.0566C75.0566 28.6296 75.0476 28.2522 75.0306 27.8768C75.0279 27.8194 75.0222 27.7627 75.0189 27.7053C74.7303 22.1921 72.6257 17.1033 69.3271 13.1941C67.95 11.5614 66.365 10.1338 64.6178 8.96726L70.0409 3.54379C70.8771 2.7079 70.8771 1.4669 70.0409 0.630675ZM39.5533 21.7109C38.7229 21.7109 37.9265 21.381 37.3393 20.7938C36.7521 20.2067 36.4223 19.4103 36.4223 18.5799C36.4223 17.7495 36.7521 16.9531 37.3393 16.3659C37.9265 15.7787 38.7229 15.4489 39.5533 15.4489C40.3837 15.4489 41.1801 15.7787 41.7673 16.3659C42.3544 16.9531 42.6843 17.7495 42.6843 18.5799C42.6843 19.4103 42.3544 20.2067 41.7673 20.7938C41.1801 21.381 40.3837 21.7109 39.5533 21.7109ZM60.446 21.7109C59.6156 21.7109 58.8192 21.381 58.232 20.7938C57.6448 20.2067 57.315 19.4103 57.315 18.5799C57.315 17.7495 57.6448 16.9531 58.232 16.3659C58.8192 15.7787 59.6156 15.4489 60.446 15.4489C61.2764 15.4489 62.0728 15.7787 62.6599 16.3659C63.2471 16.9531 63.577 17.7495 63.577 18.5799C63.577 19.4103 63.2471 20.2067 62.6599 20.7938C62.0728 21.381 61.2764 21.7109 60.446 21.7109Z" fill="url(#paint0_linear_4_51811)"/>
</g>
<defs>
<linearGradient id="paint0_linear_4_51811" x1="9.67978" y1="1.01569e-07" x2="90.3198" y2="100" gradientUnits="userSpaceOnUse">
<stop stop-color="#D09A85"/>
<stop offset="0.5" stop-color="#B971B2"/>
<stop offset="1" stop-color="#5A46A7"/>
</linearGradient>
<clipPath id="clip0_4_51811">
<rect width="100" height="100" fill="white"/>
</clipPath>
</defs>
</svg>
