<svg width="17" height="35" viewBox="0 0 17 35" fill="none" xmlns="http://www.w3.org/2000/svg">
<path d="M5.94243 20.7268H6.82723L6.40276 31.4168C5.70575 31.7575 5.10875 32.2649 4.66755 32.8914C4.22636 33.518 3.95536 34.2433 3.87988 34.9996H0.502075C3.94138 30.9906 5.86213 25.9515 5.94243 20.7268ZM12.6083 28.6031C11.6102 26.089 11.0778 23.4222 11.036 20.7268H10.1512L10.5757 31.4168C11.2727 31.7575 11.8697 32.2649 12.3109 32.8914C12.7521 33.518 13.0231 34.2433 13.0986 34.9996H16.4704C14.8321 33.088 13.5274 30.927 12.6083 28.6031ZM9.68491 31.6848L9.25446 20.7268H7.72399L7.29355 31.6848V31.6965L7.16202 34.9996H9.81643L9.68491 31.6965V31.6848ZM11.7235 19.853L12.1002 18.3966H4.87827L5.25491 19.853H11.7235ZM6.58212 17.5227H10.3963L9.86426 10.2407H7.11419L6.58212 17.5227ZM10.4322 7.91048H6.54625V9.36688H10.4322V7.91048ZM9.23653 5.14331C9.23653 4.95018 9.1578 4.76496 9.01765 4.6284C8.8775 4.49183 8.68742 4.41511 8.48923 4.41511C8.29103 4.41511 8.10095 4.49183 7.96081 4.6284C7.82066 4.76496 7.74193 4.95018 7.74193 5.14331V7.03664H9.23653V5.14331ZM8.93761 3.30591V0.48282C8.93761 0.366941 8.89037 0.255808 8.80628 0.17387C8.72219 0.0919311 8.60815 0.0458984 8.48923 0.0458984C8.37031 0.0458984 8.25626 0.0919311 8.17217 0.17387C8.08809 0.255808 8.04085 0.366941 8.04085 0.48282V3.30591C8.33488 3.2314 8.64358 3.2314 8.93761 3.30591Z" fill="white"/>
</svg>
