<svg width="17" height="35" viewBox="0 0 17 35" fill="none" xmlns="http://www.w3.org/2000/svg">
<path d="M5.9423 20.7273H6.82711L6.40264 31.4173C5.70563 31.758 5.10863 32.2654 4.66743 32.8919C4.22623 33.5185 3.95523 34.2438 3.87975 35.0001H0.501953C3.94126 30.9911 5.86201 25.952 5.9423 20.7273ZM12.6082 28.6036C11.6101 26.0895 11.0777 23.4227 11.0359 20.7273H10.1511L10.5756 31.4173C11.2726 31.758 11.8696 32.2654 12.3108 32.8919C12.752 33.5185 13.023 34.2438 13.0985 35.0001H16.4703C14.832 33.0885 13.5273 30.9275 12.6082 28.6036ZM9.68479 31.6853L9.25434 20.7273H7.72387L7.29342 31.6853V31.697L7.1619 35.0001H9.81631L9.68479 31.697V31.6853ZM11.7234 19.8535L12.1001 18.3971H4.87815L5.25479 19.8535H11.7234ZM6.58199 17.5232H10.3962L9.86414 10.2412H7.11407L6.58199 17.5232ZM10.4321 7.91097H6.54612V9.36737H10.4321V7.91097ZM9.23641 5.1438C9.23641 4.95067 9.15767 4.76545 9.01753 4.62888C8.87738 4.49232 8.6873 4.4156 8.48911 4.4156C8.29091 4.4156 8.10083 4.49232 7.96068 4.62888C7.82054 4.76545 7.7418 4.95067 7.7418 5.1438V7.03712H9.23641V5.1438ZM8.93749 3.3064V0.483308C8.93749 0.367429 8.89025 0.256297 8.80616 0.174358C8.72207 0.0924194 8.60802 0.0463867 8.48911 0.0463867C8.37019 0.0463867 8.25614 0.0924194 8.17205 0.174358C8.08796 0.256297 8.04073 0.367429 8.04073 0.483308V3.3064C8.33476 3.23189 8.64346 3.23189 8.93749 3.3064Z" fill="#8A49D6"/>
</svg>
