<svg width="100" height="100" viewBox="0 0 100 100" fill="none" xmlns="http://www.w3.org/2000/svg">
<path d="M70.0437 40.3969C70.7603 38.9195 71.7625 37.5988 72.9924 36.5111C74.2223 35.4233 75.6556 34.59 77.2094 34.0594C78.512 33.6261 79.8772 33.4107 81.25 33.4219V15.625C81.25 10.4562 77.0437 6.25 71.875 6.25H21.875C16.7062 6.25 12.5 10.4562 12.5 15.625V78.125C12.5 83.2937 16.7062 87.5 21.875 87.5H52.9656L52.6281 86.5188C51.9546 84.577 51.6732 82.5208 51.8004 80.4695C51.9275 78.4182 52.4606 76.4125 53.3687 74.5687L70.0437 40.3969ZM25 25H62.5C63.3288 25 64.1237 25.3292 64.7097 25.9153C65.2958 26.5013 65.625 27.2962 65.625 28.125C65.625 28.9538 65.2958 29.7487 64.7097 30.3347C64.1237 30.9208 63.3288 31.25 62.5 31.25H25C24.1712 31.25 23.3763 30.9208 22.7903 30.3347C22.2042 29.7487 21.875 28.9538 21.875 28.125C21.875 27.2962 22.2042 26.5013 22.7903 25.9153C23.3763 25.3292 24.1712 25 25 25ZM25 37.5H59.375C60.2038 37.5 60.9987 37.8292 61.5847 38.4153C62.1708 39.0013 62.5 39.7962 62.5 40.625C62.5 41.4538 62.1708 42.2487 61.5847 42.8347C60.9987 43.4208 60.2038 43.75 59.375 43.75H25C24.1712 43.75 23.3763 43.4208 22.7903 42.8347C22.2042 42.2487 21.875 41.4538 21.875 40.625C21.875 39.7962 22.2042 39.0013 22.7903 38.4153C23.3763 37.8292 24.1712 37.5 25 37.5ZM46.875 68.75H25C24.1712 68.75 23.3763 68.4208 22.7903 67.8347C22.2042 67.2487 21.875 66.4538 21.875 65.625C21.875 64.7962 22.2042 64.0013 22.7903 63.4153C23.3763 62.8292 24.1712 62.5 25 62.5H46.875C47.7038 62.5 48.4987 62.8292 49.0847 63.4153C49.6708 64.0013 50 64.7962 50 65.625C50 66.4538 49.6708 67.2487 49.0847 67.8347C48.4987 68.4208 47.7038 68.75 46.875 68.75ZM25 56.25C24.1712 56.25 23.3763 55.9208 22.7903 55.3347C22.2042 54.7487 21.875 53.9538 21.875 53.125C21.875 52.2962 22.2042 51.5013 22.7903 50.9153C23.3763 50.3292 24.1712 50 25 50H53.125C53.9538 50 54.7487 50.3292 55.3347 50.9153C55.9208 51.5013 56.25 52.2962 56.25 53.125C56.25 53.9538 55.9208 54.7487 55.3347 55.3347C54.7487 55.9208 53.9538 56.25 53.125 56.25H25ZM92.5125 51.3594L75.8313 85.5438C75.2932 86.652 74.5409 87.6427 73.6178 88.4585C72.6947 89.2743 71.6191 89.8991 70.4531 90.2969L64.5437 92.3281C63.7605 92.5969 62.9026 92.5438 62.1585 92.1805C61.4144 91.8173 60.8448 91.1735 60.575 90.3906L58.5406 84.4813C58.1366 83.3169 57.9678 82.084 58.0439 80.8539C58.1201 79.6239 58.4398 78.4212 58.9844 77.3156L75.6656 43.1375C76.3937 41.6375 77.6687 40.5125 79.2469 39.9688C80.0219 39.6982 80.8431 39.5849 81.6624 39.6353C82.4817 39.6858 83.2828 39.899 84.0187 40.2625L89.6375 43.0031C91.1375 43.7344 92.2625 45.0094 92.8063 46.5875C93.35 48.1656 93.2469 49.8594 92.5125 51.3594Z" fill="url(#paint0_linear_4_32490)"/>
<defs>
<linearGradient id="paint0_linear_4_32490" x1="12.8361" y1="6.25" x2="108.105" y2="108.008" gradientUnits="userSpaceOnUse">
<stop stop-color="#D09A85"/>
<stop offset="0.5" stop-color="#B971B2"/>
<stop offset="1" stop-color="#5A46A7"/>
</linearGradient>
</defs>
</svg>
