<svg width="50" height="50" viewBox="0 0 50 50" fill="none" xmlns="http://www.w3.org/2000/svg">
<path d="M1.37686 38.5593H3.10186V44.9044L1.37686 42.7064V38.5593ZM14.2022 21.8452C13.8855 22.2274 13.3712 22.6832 12.7198 22.6832C12.0655 22.6832 11.553 22.2282 11.2384 21.8465L10.8004 21.3152L9.73779 22.1912L10.1758 22.7225C10.887 23.5852 11.7905 24.0602 12.7197 24.0602C13.6589 24.0602 14.5382 23.598 15.2627 22.7236L15.702 22.1935L14.6415 21.3148L14.2022 21.8452ZM7.81904 18.8027H9.19629V16.489H7.81904V18.8027ZM16.2405 18.8027H17.6178V16.489H16.2405V18.8027ZM22.5552 47.0139H21.1773V36.6386C21.1773 36.5477 21.1413 36.4606 21.0772 36.3963C21.013 36.3319 20.926 36.2956 20.8352 36.2953H4.82178C4.63594 36.2953 4.47959 36.4526 4.47959 36.6386V47.0139H0V48.3917H25.6599V47.0139H22.6505H22.5552ZM50 9.74551V37.871C49.9998 38.0535 49.9272 38.2285 49.7981 38.3575C49.6691 38.4866 49.4941 38.5592 49.3116 38.5594H25.6599V37.1825H48.6222V14.0775H25.9638V14.0215C25.9638 13.5888 25.9343 13.1472 25.8753 12.7007C25.7779 11.9553 25.6009 11.194 25.3502 10.4339C25.1967 9.96607 25.0191 9.50651 24.8182 9.05703H49.3117C49.4943 9.05708 49.6693 9.12964 49.7984 9.25875C49.9275 9.38786 50 9.56295 50 9.74551ZM45.5755 10.8774V12.2543H47.1372V10.8774H45.5755ZM42.4363 10.8774V12.2543H43.9951V10.8774H42.4363ZM39.2952 10.8774V12.2543H40.856V10.8774H39.2952ZM4.59756 25.1943C2.45762 22.7063 1.27939 19.4048 1.27939 15.8979C1.27939 13.4176 2.63262 7.58877 5.11484 5.75068C5.8377 5.2167 6.58311 5.07705 7.39551 5.3249C7.61973 5.39277 7.8626 5.34258 8.0416 5.19111C8.22061 5.03965 8.30908 4.80762 8.27861 4.57549C8.22256 4.15361 8.37012 3.74844 8.73096 3.33633C9.66621 2.26836 11.6302 1.6084 12.9146 1.6084C18.8604 1.6084 24.176 8.04111 24.5644 13.4027C24.5791 13.6103 24.587 13.8168 24.587 14.0213V14.0773C24.5742 20.0035 22.5385 23.1318 20.7645 25.1941C20.6922 25.2785 20.6414 25.3791 20.6162 25.4873C20.591 25.5955 20.5923 25.7081 20.6198 25.8157C20.7602 26.3599 20.9319 26.8954 21.1342 27.4197C20.2432 26.9755 19.3193 26.6007 18.3707 26.2986C17.9154 26.69 17.4354 27.0333 16.9368 27.3224C19.5371 27.9773 22.0055 29.241 24.2831 31.085V42.7063L22.5552 44.9062V36.6385C22.5552 35.6895 21.7832 34.9185 20.8352 34.9185H4.82178C3.87373 34.9185 3.10176 35.6895 3.10176 36.6385V37.1823H1.37686V31.085C3.6083 29.2784 6.02656 28.0274 8.57266 27.3616C8.06816 27.0744 7.58633 26.7361 7.13096 26.3507C6.11611 26.6821 5.12275 27.1021 4.1541 27.6085C4.39026 27.0241 4.58673 26.4245 4.74219 25.8137C4.76971 25.7064 4.77093 25.5941 4.74575 25.4863C4.72057 25.3785 4.66973 25.2783 4.59756 25.1943ZM15.4409 28.0148C14.5656 28.3227 13.6511 28.4819 12.7197 28.4819C11.7786 28.4819 10.864 28.3187 9.99658 28.0128V29.067C9.99658 30.5667 11.218 31.7882 12.7197 31.7882C14.2194 31.7882 15.4409 30.5667 15.4409 29.067V28.0148ZM21.1292 17.5697C19.8527 15.8988 17.7875 14.0923 14.9817 14.4758C14.6523 14.5216 14.3201 14.5449 13.9875 14.5456C11.2712 14.5456 10.0292 12.8492 9.25518 11.791C9.04863 11.5088 8.77031 11.1282 8.62578 11.0436C8.60215 11.0554 8.55693 11.081 8.49102 11.1351C6.79951 12.5286 6.31465 14.0952 5.84561 15.6097C5.52012 16.664 5.18379 17.7496 4.45303 18.7006C5.2959 23.5883 8.73496 27.1041 12.7198 27.1041C17.0125 27.1042 20.668 22.9363 21.1292 17.5697ZM27.2157 17.8126V33.0894C27.2157 33.2719 27.2883 33.447 27.4174 33.5761C27.5465 33.7052 27.7215 33.7777 27.9041 33.7777H45.9934V32.4009H44.0895V20.3361C44.0895 20.2457 44.0718 20.1562 44.0372 20.0726C44.0026 19.9891 43.9519 19.9132 43.888 19.8492C43.824 19.7853 43.7481 19.7346 43.6646 19.7C43.581 19.6655 43.4915 19.6477 43.4011 19.6478H40.6612C40.2807 19.6478 39.9719 19.9556 39.9719 20.3361V32.401H38.9717V25.451C38.9715 25.2685 38.8989 25.0935 38.7698 24.9644C38.6408 24.8354 38.4658 24.7628 38.2833 24.7626H35.5454C35.3628 24.7626 35.1878 24.8352 35.0587 24.9642C34.9296 25.0933 34.8571 25.2684 34.857 25.451V32.401H33.8559V28.479C33.8559 28.3886 33.8382 28.299 33.8036 28.2155C33.769 28.132 33.7183 28.056 33.6544 27.9921C33.5904 27.9282 33.5145 27.8775 33.431 27.8429C33.3474 27.8083 33.2579 27.7906 33.1675 27.7906H30.4276C30.0471 27.7906 29.7383 28.0984 29.7383 28.479V32.401H28.5936V17.8126H27.2157Z" fill="white"/>
</svg>
