<svg width="50" height="50" viewBox="0 0 50 50" fill="none" xmlns="http://www.w3.org/2000/svg">
<path d="M24.9228 23.5044C25.0153 23.5061 25.1073 23.4893 25.1932 23.455C25.2792 23.4207 25.3574 23.3697 25.4234 23.3048C25.4894 23.24 25.5419 23.1626 25.5777 23.0773C25.6134 22.9919 25.6319 22.9003 25.6319 22.8078C25.6319 22.7153 25.6134 22.6237 25.5777 22.5383C25.5419 22.453 25.4894 22.3757 25.4234 22.3108C25.3574 22.246 25.2792 22.1949 25.1932 22.1606C25.1073 22.1264 25.0153 22.1096 24.9228 22.1112C24.738 22.1112 24.5608 22.1845 24.4302 22.3151C24.2995 22.4458 24.226 22.6229 24.226 22.8077C24.2262 22.9924 24.2997 23.1696 24.4303 23.3002C24.5609 23.4309 24.7381 23.5042 24.9228 23.5044ZM20.1193 31.8778H29.7263V35.2621H20.1193V31.8778ZM10.8398 46.3574C10.8398 48.3442 12.4403 50.0001 14.4266 50.0001H35.419C37.4058 50.0001 39.0058 48.3437 39.0058 46.3574V41.1573H10.8398V46.3574ZM24.9228 42.5283C26.6077 42.5283 27.9736 43.8942 27.9736 45.5791C27.9736 47.264 26.6077 48.6299 24.9228 48.6299C23.2379 48.6299 21.872 47.2639 21.872 45.5791C21.8742 43.895 23.2389 42.5304 24.9228 42.5283Z" fill="white"/>
<path d="M28.7203 30.3493L30.2654 24.3441L25.687 15.7009V20.7205C26.178 20.9001 26.59 21.2468 26.8509 21.6999C27.1117 22.1529 27.2047 22.6833 27.1136 23.1981C27.0224 23.7129 26.7529 24.1791 26.3523 24.5149C25.9517 24.8508 25.4456 25.0349 24.9228 25.0349C24.4 25.0349 23.894 24.8508 23.4934 24.5149C23.0928 24.1791 22.8232 23.7129 22.7321 23.1981C22.6409 22.6833 22.7339 22.1529 22.9947 21.6999C23.2556 21.2468 23.6677 20.9001 24.1586 20.7205V15.7009L19.5846 24.3365L21.2498 30.3493H28.7203ZM35.419 0H14.4266C12.4403 0 10.8398 1.65633 10.8398 3.64269V7.09607H39.0058V3.64269C39.0058 1.65633 37.4053 0 35.419 0ZM28.6384 4.0393H21.2072C20.785 4.0393 20.443 3.69727 20.443 3.27511C20.443 2.85295 20.785 2.51092 21.2072 2.51092H28.6384C29.0606 2.51092 29.4026 2.85295 29.4026 3.27511C29.4026 3.69727 29.0606 4.0393 28.6384 4.0393Z" fill="white"/>
<path d="M10.8398 39.6289H39.0058V8.62451H10.8398V39.6289ZM18.0916 23.8972L24.2473 12.2668C24.3123 12.1439 24.4095 12.0412 24.5285 11.9695C24.6476 11.8978 24.7839 11.8599 24.9228 11.8599C25.0618 11.8599 25.1981 11.8978 25.3171 11.9695C25.4361 12.0412 25.5334 12.1439 25.5984 12.2668L31.754 23.8972C31.8433 24.0629 31.8665 24.2563 31.8189 24.4384L30.2981 30.3494H30.4603C30.6675 30.3512 30.8659 30.4332 31.014 30.5781C31.1621 30.7231 31.2484 30.9197 31.2547 31.1268V36.0663C31.2547 36.4885 30.882 36.7904 30.4603 36.7904H19.3854C18.9636 36.7904 18.5909 36.4885 18.5909 36.0663V31.1268C18.5973 30.9197 18.6835 30.7231 18.8316 30.5781C18.9797 30.4332 19.1782 30.3512 19.3854 30.3494H19.6639L18.0301 24.4517C17.9784 24.2659 18.0004 24.0672 18.0916 23.8972ZM26.4452 45.5791C26.4452 46.42 25.7638 47.1015 24.9228 47.1015C24.0819 47.1015 23.4004 46.42 23.4004 45.5791C23.4004 44.7385 24.0819 44.0567 24.9228 44.0567C25.7638 44.0567 26.4452 44.7386 26.4452 45.5791Z" fill="white"/>
</svg>
