<svg width="50" height="50" viewBox="0 0 50 50" fill="none" xmlns="http://www.w3.org/2000/svg">
<path d="M25 35.9375C20.6922 35.9375 17.1875 32.4328 17.1875 28.125V21.875C17.1875 17.5672 20.6922 14.0625 25 14.0625H28.125V7.8125C28.125 7.3981 27.9604 7.00067 27.6674 6.70765C27.3743 6.41462 26.9769 6.25 26.5625 6.25H20.3125C20.3125 7.0788 19.9833 7.87366 19.3972 8.45971C18.8112 9.04576 18.0163 9.375 17.1875 9.375C16.3587 9.375 15.5638 9.04576 14.9778 8.45971C14.3917 7.87366 14.0625 7.0788 14.0625 6.25H7.8125C7.3981 6.25 7.00067 6.41462 6.70765 6.70765C6.41462 7.00067 6.25 7.3981 6.25 7.8125V42.1875C6.25 42.6019 6.41462 42.9993 6.70765 43.2924C7.00067 43.5854 7.3981 43.75 7.8125 43.75H26.5625C26.9769 43.75 27.3743 43.5854 27.6674 43.2924C27.9604 42.9993 28.125 42.6019 28.125 42.1875V35.9375H25Z" fill="white"/>
<path d="M30.1547 35.9375H29.6875V42.1875C29.6875 43.9109 28.2859 45.3125 26.5625 45.3125H7.8125C6.08906 45.3125 4.6875 43.9109 4.6875 42.1875V7.8125C4.6875 6.08906 6.08906 4.6875 7.8125 4.6875H26.5625C28.2859 4.6875 29.6875 6.08906 29.6875 7.8125V14.0625H31.25V7.8125C31.25 5.22812 29.1469 3.125 26.5625 3.125H7.8125C5.22812 3.125 3.125 5.22812 3.125 7.8125V42.1875C3.125 44.7719 5.22812 46.875 7.8125 46.875H26.5625C29.1469 46.875 31.25 44.7719 31.25 42.1875V36.8141L30.1547 35.9375Z" fill="white"/>
<path d="M40.625 15.625H25C21.5531 15.625 18.75 18.4281 18.75 21.875V28.125C18.75 31.5719 21.5531 34.375 25 34.375H30.7031L38.0859 40.2828C38.3631 40.5046 38.7075 40.6253 39.0625 40.625H39.0938C39.3575 40.6252 39.617 40.5586 39.8481 40.4315C40.0792 40.3043 40.2743 40.1207 40.4153 39.8978C40.5563 39.6749 40.6386 39.42 40.6545 39.1567C40.6704 38.8934 40.6194 38.6304 40.5063 38.3922L39.5 34.375H40.625C44.0719 34.375 46.875 31.5719 46.875 28.125V21.875C46.875 18.4281 44.0719 15.625 40.625 15.625ZM27.8438 28.3062C27.9973 28.4405 28.0922 28.6295 28.1082 28.8329C28.1242 29.0362 28.0601 29.2377 27.9295 29.3944C27.799 29.5511 27.6123 29.6505 27.4094 29.6714C27.2065 29.6923 27.0035 29.633 26.8438 29.5063L22.1563 25.6C22.0678 25.527 21.9967 25.4353 21.9478 25.3316C21.8989 25.2279 21.8736 25.1147 21.8736 25C21.8736 24.8853 21.8989 24.7721 21.9478 24.6684C21.9967 24.5647 22.0678 24.473 22.1563 24.4L26.8438 20.4938C27.0035 20.367 27.2065 20.3077 27.4094 20.3286C27.6123 20.3495 27.799 20.4489 27.9295 20.6056C28.0601 20.7623 28.1242 20.9638 28.1082 21.1671C28.0922 21.3705 27.9973 21.5595 27.8438 21.6937L23.8766 25L27.8438 28.3062ZM35.8281 21.4953L31.1406 29.3078C31.0341 29.4856 30.8614 29.6138 30.6603 29.6642C30.4593 29.7146 30.2465 29.6831 30.0687 29.5766C29.891 29.4701 29.7628 29.2973 29.7124 29.0963C29.662 28.8953 29.6935 28.6825 29.8 28.5047L34.4875 20.6922C34.5382 20.6002 34.6069 20.5194 34.6895 20.4545C34.7721 20.3897 34.8669 20.3422 34.9683 20.3148C35.0697 20.2875 35.1755 20.2808 35.2796 20.2953C35.3836 20.3098 35.4836 20.3451 35.5737 20.3991C35.6637 20.4531 35.742 20.5247 35.8037 20.6097C35.8655 20.6946 35.9095 20.7911 35.9331 20.8935C35.9567 20.9958 35.9594 21.1018 35.9411 21.2052C35.9228 21.3086 35.8854 21.4073 35.8281 21.4953ZM43.4688 25.6L38.7812 29.5063C38.7026 29.5723 38.6117 29.6221 38.5137 29.6528C38.4158 29.6835 38.3127 29.6946 38.2104 29.6853C38.1082 29.676 38.0088 29.6465 37.918 29.5986C37.8271 29.5508 37.7467 29.4854 37.6812 29.4062C37.5487 29.2471 37.4848 29.0418 37.5035 28.8355C37.5223 28.6293 37.6222 28.4389 37.7812 28.3062L41.7484 25L37.7797 21.6937C37.7009 21.628 37.6358 21.5473 37.5882 21.4564C37.5406 21.3655 37.5113 21.2661 37.5021 21.1639C37.4929 21.0617 37.5039 20.9587 37.5345 20.8607C37.5651 20.7627 37.6147 20.6718 37.6805 20.593C37.7462 20.5142 37.8269 20.4491 37.9178 20.4015C38.0087 20.3538 38.1081 20.3246 38.2103 20.3154C38.3125 20.3062 38.4156 20.3172 38.5135 20.3478C38.6115 20.3784 38.7025 20.428 38.7812 20.4938L43.4688 24.4C43.5572 24.473 43.6283 24.5647 43.6772 24.6684C43.7261 24.7721 43.7514 24.8853 43.7514 25C43.7514 25.1147 43.7261 25.2279 43.6772 25.3316C43.6283 25.4353 43.5572 25.527 43.4688 25.6Z" fill="white"/>
</svg>
