<svg width="50" height="50" viewBox="0 0 50 50" fill="none" xmlns="http://www.w3.org/2000/svg">
<path d="M42.1171 39.2904C41.1101 36.2934 37.0966 34.4174 34.2351 33.1599C33.1141 32.6689 30.0106 31.8359 29.6376 30.4244C29.5041 29.9159 29.5221 29.4364 29.6316 28.9769C29.4575 29.0111 29.2806 29.0287 29.1031 29.0294H27.2386C26.5232 29.0286 25.8374 28.744 25.3315 28.2381C24.8257 27.7322 24.5413 27.0463 24.5406 26.3309C24.5406 24.8444 25.7506 23.6359 27.2386 23.6359H29.1031C29.7191 23.6359 30.3031 23.8444 30.7741 24.2164C31.4443 24.128 32.1058 23.9832 32.7516 23.7834C33.5671 22.0749 34.2031 20.0319 34.3456 18.2734C34.9541 10.7494 30.3416 6.3474 23.7281 7.1084C18.9196 7.6619 16.0471 11.2474 15.7366 15.8634C15.4226 20.5684 17.1671 24.0434 19.0201 26.5924C19.8316 27.7069 20.6841 28.4234 20.5531 29.7664C20.4011 31.3544 18.7031 31.7969 17.4886 32.2849C16.0496 32.8629 14.4996 33.7399 13.7676 34.1454C11.2461 35.5379 8.47862 37.2149 7.85662 39.5089C6.47912 44.5929 11.1311 46.1329 14.9716 46.8439C18.2676 47.4519 21.9841 47.4999 25.0411 47.4999C30.5706 47.4999 40.5136 47.2784 42.1171 43.1219C42.5731 41.9424 42.3776 40.0629 42.1171 39.2904Z" fill="white"/>
<path d="M30.2831 25.5715C30.1554 25.375 29.9807 25.2134 29.7749 25.1013C29.569 24.9893 29.3384 24.9304 29.1041 24.93H27.2396C27.052 24.925 26.8653 24.9576 26.6905 25.026C26.5157 25.0943 26.3564 25.1969 26.2219 25.3279C26.0875 25.4588 25.9806 25.6153 25.9076 25.7882C25.8347 25.9611 25.7971 26.1468 25.7971 26.3345C25.7971 26.5222 25.8347 26.7079 25.9076 26.8808C25.9806 27.0537 26.0875 27.2102 26.2219 27.3411C26.3564 27.4721 26.5157 27.5747 26.6905 27.643C26.8653 27.7114 27.052 27.744 27.2396 27.739H29.1041C29.3606 27.7388 29.612 27.6678 29.8307 27.5338C30.0495 27.3997 30.2269 27.2079 30.3436 26.9795C32.9431 26.775 35.2041 25.981 36.7911 24.8085C37.1556 25.0435 37.5866 25.181 38.0516 25.181H38.1686C38.4766 25.1811 38.7816 25.1204 39.0662 25.0025C39.3508 24.8845 39.6093 24.7117 39.8271 24.4937C40.0448 24.2758 40.2174 24.0171 40.335 23.7324C40.4526 23.4476 40.513 23.1425 40.5126 22.8345V18.1505C40.5127 17.7081 40.3872 17.2748 40.1507 16.9009C39.9142 16.527 39.5764 16.2279 39.1766 16.0385C38.8326 8.517 32.6061 2.5 25.0001 2.5C17.3941 2.5 11.1666 8.517 10.8241 16.0385C10.424 16.2277 10.0859 16.5266 9.84916 16.9005C9.61244 17.2745 9.48687 17.7079 9.48706 18.1505V22.8345C9.48667 23.1424 9.54694 23.4473 9.66444 23.7319C9.78195 24.0165 9.95437 24.2751 10.1719 24.493C10.3894 24.7109 10.6477 24.8838 10.932 25.0019C11.2164 25.1199 11.5212 25.1808 11.8291 25.181H11.9476C12.2555 25.1809 12.5605 25.1202 12.845 25.0022C13.1295 24.8842 13.3879 24.7113 13.6056 24.4934C13.8232 24.2755 13.9958 24.0168 14.1134 23.7322C14.231 23.4475 14.2914 23.1425 14.2911 22.8345V18.1505C14.2908 17.7143 14.1686 17.2868 13.9382 16.9164C13.7077 16.546 13.3783 16.2475 12.9871 16.0545C13.3216 9.717 18.5806 4.6655 25.0001 4.6655C31.4171 4.6655 36.6786 9.717 37.0116 16.0545C36.6207 16.2478 36.2917 16.5465 36.0616 16.9168C35.8314 17.2872 35.7093 17.7145 35.7091 18.1505V22.8345C35.7091 23.1455 35.7696 23.435 35.8761 23.7055C34.5101 24.683 32.5216 25.3795 30.2831 25.5715Z" fill="white"/>
</svg>
