<svg width="100" height="100" viewBox="0 0 100 100" fill="none" xmlns="http://www.w3.org/2000/svg">
<path d="M82.6562 56.9937C81.8549 56.992 81.0605 56.8437 80.3125 56.5562C79.0033 57.2069 77.6572 57.7808 76.2812 58.2749C75.77 59.416 74.938 60.3839 73.8866 61.0608C72.8352 61.7377 71.6098 62.0944 70.3594 62.0874H66.6406C65.3875 62.0881 64.1611 61.7254 63.1101 61.0431C62.059 60.3609 61.2283 59.3885 60.7188 58.2437C59.3152 57.8084 57.9552 57.2435 56.6562 56.5562C55.4856 57.0081 54.2084 57.1084 52.9816 56.8447C51.7548 56.581 50.6316 55.9648 49.75 55.0718L47.1406 52.4468C46.236 51.5661 45.6135 50.4364 45.352 49.2013C45.0905 47.9661 45.2018 46.6811 45.6719 45.5093C44.9991 44.2137 44.4195 42.8717 43.9375 41.4937C42.7952 40.984 41.8262 40.1524 41.1491 39.1007C40.472 38.0489 40.1161 36.8226 40.125 35.5718V31.8531C40.1203 30.6051 40.476 29.3824 41.1496 28.3319C41.8232 27.2813 42.7858 26.4477 43.9219 25.9312C44.4287 24.5579 45.0077 23.2123 45.6562 21.8999C45.1956 20.7328 45.087 19.4563 45.3438 18.2281H10.9375C9.69455 18.2289 8.50275 18.723 7.62385 19.6019C6.74495 20.4808 6.25083 21.6726 6.25 22.9156V69.9468C6.25083 71.1898 6.74495 72.3816 7.62385 73.2605C8.50275 74.1394 9.69455 74.6335 10.9375 74.6343H84.625C85.868 74.6335 87.0598 74.1394 87.9387 73.2605C88.8175 72.3816 89.3117 71.1898 89.3125 69.9468V53.0093C87.5312 54.8452 85.4484 57.1702 82.6562 56.9937ZM22.3438 60.4156C22.5581 60.6364 22.7031 60.9152 22.7607 61.2175C22.8184 61.5197 22.7862 61.8323 22.6682 62.1165C22.5502 62.4007 22.3515 62.6442 22.0967 62.8167C21.8419 62.9893 21.5421 63.0834 21.2344 63.0874C21.0276 63.0872 20.8229 63.0456 20.6324 62.9651C20.4418 62.8846 20.2693 62.7668 20.125 62.6187L14.8594 57.3531C14.5666 57.058 14.4024 56.6593 14.4024 56.2437C14.4024 55.8281 14.5666 55.4293 14.8594 55.1343L20.125 49.8687C20.4172 49.5745 20.8142 49.4083 21.2289 49.4069C21.6435 49.4054 22.0417 49.5687 22.3359 49.8609C22.6302 50.153 22.7963 50.5501 22.7977 50.9647C22.7992 51.3794 22.6359 51.7776 22.3438 52.0718L18.1719 56.2437L22.3438 60.4156ZM33.2969 51.3531L30.6719 61.8999C30.5703 62.3019 30.3133 62.6471 29.9573 62.8595C29.6012 63.072 29.1754 63.1343 28.7734 63.0327C28.3715 62.9312 28.0263 62.6742 27.8139 62.3181C27.6014 61.9621 27.5391 61.5363 27.6406 61.1343L30.2656 50.5874C30.3672 50.1855 30.6242 49.8403 30.9802 49.6278C31.3363 49.4154 31.7621 49.3531 32.1641 49.4546C32.566 49.5562 32.9112 49.8132 33.1236 50.1692C33.3361 50.5253 33.3984 50.9511 33.2969 51.3531ZM46.0781 57.3531L40.8125 62.6187C40.6682 62.7668 40.4957 62.8846 40.3051 62.9651C40.1146 63.0456 39.9099 63.0872 39.7031 63.0874C39.3954 63.0834 39.0956 62.9893 38.8408 62.8167C38.586 62.6442 38.3873 62.4007 38.2693 62.1165C38.1513 61.8323 38.1191 61.5197 38.1768 61.2175C38.2344 60.9152 38.3794 60.6364 38.5938 60.4156L42.7656 56.2437L38.5938 52.0718C38.4489 51.9273 38.334 51.7556 38.2556 51.5665C38.1772 51.3775 38.1368 51.1749 38.1368 50.9702C38.1368 50.7656 38.1772 50.563 38.2556 50.374C38.334 50.1849 38.4489 50.0132 38.5938 49.8687C38.8888 49.5759 39.2875 49.4117 39.7031 49.4117C40.1187 49.4117 40.5175 49.5759 40.8125 49.8687L46.0781 55.1343C46.3709 55.4293 46.5351 55.8281 46.5351 56.2437C46.5351 56.6593 46.3709 57.058 46.0781 57.3531ZM77.8594 88.7124C78.1909 88.9611 78.4101 89.3312 78.4687 89.7415C78.5273 90.1517 78.4205 90.5684 78.1719 90.8999C77.9232 91.2315 77.5531 91.4506 77.1428 91.5092C76.7326 91.5678 76.3159 91.4611 75.9844 91.2124C75.9219 91.1656 70.0312 87.0249 53.625 86.1968C49.7314 86.0096 45.8311 86.0096 41.9375 86.1968C25.5312 87.0249 19.6406 91.1656 19.5625 91.2124C19.3983 91.3345 19.2118 91.4231 19.0134 91.4731C18.815 91.523 18.6087 91.5334 18.4063 91.5037C18.2039 91.474 18.0094 91.4046 17.8337 91.2997C17.6581 91.1948 17.5049 91.0563 17.3828 90.8921C17.2607 90.728 17.1722 90.5414 17.1222 90.343C17.0722 90.1446 17.0618 89.9383 17.0915 89.7359C17.1213 89.5335 17.1906 89.339 17.2955 89.1634C17.4005 88.9877 17.539 88.8345 17.7031 88.7124C17.9844 88.5093 24 84.1343 40.75 83.1343C41.156 81.3733 41.3138 79.5641 41.2188 77.7593H54.3438C54.2473 79.5641 54.4051 81.3735 54.8125 83.1343C71.5625 84.1343 77.5781 88.5093 77.8594 88.7124ZM90.6719 28.4937C90.6274 28.4953 90.5835 28.4825 90.5469 28.4572C90.5103 28.4318 90.4829 28.3953 90.4688 28.3531C89.8169 26.06 88.943 23.8359 87.8594 21.7124C88.4067 21.0734 88.6917 20.2507 88.6569 19.4099C88.6221 18.5692 88.2701 17.7729 87.6719 17.1812L85.0469 14.5562C84.4557 13.9526 83.6575 13.5959 82.8135 13.5582C81.9695 13.5205 81.1426 13.8046 80.5 14.3531C78.3734 13.2764 76.15 12.4028 73.8594 11.7437C73.8173 11.7293 73.7809 11.7019 73.7556 11.6653C73.7303 11.6287 73.7174 11.585 73.7188 11.5406C73.6463 10.6999 73.2609 9.91705 72.6388 9.34701C72.0166 8.77697 71.2032 8.46128 70.3594 8.46244H66.6406C65.8078 8.45842 65.0035 8.76532 64.3851 9.32307C63.7666 9.88082 63.3786 10.6493 63.2969 11.4781C63.3042 11.5334 63.2929 11.5897 63.2645 11.6378C63.2362 11.686 63.1926 11.7232 63.1406 11.7437C60.8918 12.2889 58.7413 13.1797 56.7656 14.3843C56.7259 14.406 56.6805 14.4146 56.6356 14.409C56.5907 14.4034 56.5488 14.3838 56.5156 14.3531C55.8735 13.8057 55.0485 13.5209 54.2054 13.5557C53.3624 13.5905 52.5636 13.9422 51.9687 14.5406L49.3438 17.1812C48.7436 17.771 48.389 18.5662 48.3513 19.4069C48.3136 20.2475 48.5956 21.0713 49.1406 21.7124C48.0615 23.8379 47.1878 26.0615 46.5312 28.3531C46.5191 28.3965 46.4921 28.4343 46.455 28.4599C46.4179 28.4856 46.3731 28.4976 46.3281 28.4937C45.4874 28.5661 44.7046 28.9516 44.1346 29.5737C43.5645 30.1958 43.2488 31.0093 43.25 31.8531V35.5718C43.247 36.4146 43.5624 37.2274 44.1332 37.8474C44.704 38.4675 45.488 38.849 46.3281 38.9156C46.3739 38.9176 46.418 38.9337 46.4543 38.9617C46.4907 38.9896 46.5175 39.0281 46.5312 39.0718C47.1885 41.3581 48.0622 43.5764 49.1406 45.6968C48.5953 46.3408 48.3132 47.167 48.3509 48.0101C48.3886 48.8531 48.7432 49.6509 49.3438 50.2437L51.9687 52.8687C52.5616 53.4693 53.3593 53.8239 54.2024 53.8615C55.0454 53.8992 55.8716 53.6171 56.5156 53.0718C56.549 53.0415 56.5909 53.0222 56.6357 53.0166C56.6804 53.011 56.7258 53.0194 56.7656 53.0406C58.7413 54.2452 60.8918 55.136 63.1406 55.6812C63.2375 55.6937 63.3109 55.8312 63.2969 55.9468C63.3813 56.7745 63.7702 57.5413 64.388 58.0985C65.0059 58.6558 65.8086 58.9636 66.6406 58.9624H70.3594C71.2032 58.9636 72.0166 58.6479 72.6388 58.0779C73.2609 57.5078 73.6463 56.725 73.7188 55.8843C73.7171 55.8398 73.7299 55.796 73.7553 55.7594C73.7806 55.7228 73.8171 55.6953 73.8594 55.6812C76.1508 55.0245 78.3744 54.1507 80.5 53.0718C81.1426 53.6203 81.9695 53.9044 82.8135 53.8667C83.6575 53.829 84.4557 53.4723 85.0469 52.8687L87.6719 50.2437C88.2702 49.6488 88.622 48.85 88.6567 48.007C88.6915 47.164 88.4067 46.3389 87.8594 45.6968C88.9383 43.5767 89.812 41.3582 90.4688 39.0718C90.4848 39.0295 90.5122 38.9924 90.5481 38.9648C90.584 38.9372 90.6268 38.9202 90.6719 38.9156C91.5131 38.8518 92.2988 38.4712 92.8701 37.8505C93.4415 37.2298 93.756 36.4154 93.75 35.5718V31.8531C93.7541 31.0084 93.4394 30.1934 92.8688 29.5706C92.2981 28.9479 91.5136 28.5633 90.6719 28.4937ZM68.5 47.7749C64.7719 47.77 61.1979 46.2868 58.5618 43.6506C55.9256 41.0145 54.4425 37.4405 54.4375 33.7124C55.2 15.0624 81.8031 15.0687 82.5625 33.7124C82.5575 37.4405 81.0744 41.0145 78.4382 43.6506C75.8021 46.2868 72.2281 47.77 68.5 47.7749Z" fill="url(#paint0_linear_4_31205)"/>
<defs>
<linearGradient id="paint0_linear_4_31205" x1="6.25" y1="15.2343" x2="93.75" y2="87.7929" gradientUnits="userSpaceOnUse">
<stop stop-color="#D09A85"/>
<stop offset="0.5" stop-color="#B971B2"/>
<stop offset="1" stop-color="#5A46A7"/>
</linearGradient>
</defs>
</svg>
