<svg width="100" height="100" viewBox="0 0 100 100" fill="none" xmlns="http://www.w3.org/2000/svg">
<path d="M3.125 69.6289H96.873V73.1992C96.873 77.2246 93.5781 80.5234 89.5488 80.5234H10.4512C6.41992 80.5234 3.12695 77.2246 3.12695 73.1992V69.6289H3.125ZM29.1582 36.5098L23.3789 33.1719V46.5254L29.1641 43.1875L34.9434 39.8496L29.2402 36.5547C29.2129 36.5371 29.1855 36.5273 29.1562 36.5098H29.1582ZM42.3574 39.8477C42.3574 44.0059 40.6738 47.7754 37.9453 50.5C35.2207 53.2285 31.457 54.9121 27.293 54.9121C23.1289 54.9121 19.3652 53.2285 16.6406 50.5C13.916 47.7754 12.2285 44.0059 12.2285 39.8477C12.2285 35.6895 13.918 31.9199 16.6406 29.1953C19.3652 26.4668 23.1348 24.7832 27.293 24.7832C31.4512 24.7832 35.2207 26.4668 37.9453 29.1953C40.6738 31.9199 42.3574 35.6836 42.3574 39.8477ZM38.2559 39.8477C38.2559 39.3164 38.1172 38.8125 37.8574 38.3633C37.5977 37.9199 37.2324 37.5488 36.7715 37.2891H36.7656L30.8086 33.8457C30.7813 33.8281 30.7539 33.8125 30.7246 33.7949L24.6797 30.3008V30.3066L24.6738 30.3008C24.2031 30.0352 23.6992 29.8965 23.2012 29.8965C22.7363 29.8965 22.2773 30.0137 21.8398 30.2402C21.8008 30.2617 21.7559 30.2793 21.7188 30.3008C21.3133 30.5375 20.9683 30.8651 20.7109 31.2578C20.6895 31.2969 20.6602 31.3359 20.6387 31.3789C20.3789 31.8281 20.2402 32.332 20.2402 32.8633V46.8262C20.2393 47.3451 20.3756 47.8551 20.6352 48.3044C20.8949 48.7537 21.2687 49.1264 21.7188 49.3848C22.1895 49.6562 22.6934 49.7949 23.2031 49.7949C23.7129 49.7949 24.2109 49.6562 24.6816 49.3848L30.7227 45.8965L36.6914 42.4531C36.7188 42.4355 36.7461 42.4199 36.7754 42.4023C37.1842 42.1701 37.5302 41.8416 37.7832 41.4453C37.8105 41.4062 37.8379 41.3672 37.8613 41.3281C38.1211 40.8789 38.2598 40.375 38.2598 39.8438L38.2559 39.8477ZM96.875 24.0957V66.4824H3.125V24.0977C3.125 20.0664 6.41992 16.7734 10.4492 16.7734H79.3164L62.0488 46.6875C61.9551 46.8418 61.8984 47.0078 61.8652 47.1738L60.0762 54.4766L58.748 59.8809C52.4531 55.7891 49.5527 56.9629 46.1797 58.3301C43.5605 59.3867 40.5938 60.5898 34.2656 58.1094C34.0738 58.0342 33.869 57.9977 33.663 58.0018C33.4571 58.0059 33.2539 58.0505 33.0652 58.1333C32.8765 58.216 32.706 58.3351 32.5635 58.4839C32.4209 58.6326 32.3091 58.808 32.2344 59C31.918 59.8027 32.3184 60.7109 33.125 61.0254C40.6152 63.9648 44.1973 62.5156 47.3535 61.2363C50.127 60.1133 52.4805 59.1602 58.459 63.4785C58.7969 63.7227 59.2012 63.8105 59.5781 63.7617C60.0645 63.8281 60.541 63.6621 60.8789 63.3418L66.3535 58.0938L71.834 52.8457C71.9668 52.7188 72.0723 52.5742 72.1504 52.4199L92.3906 17.3516C95.0195 18.4707 96.8691 21.0781 96.8691 24.0996L96.875 24.0957ZM27.293 58.0508C32.3203 58.0508 36.8711 56.0137 40.1699 52.7188C43.4648 49.4238 45.502 44.873 45.502 39.8457C45.502 34.8184 43.4648 30.2676 40.1699 26.9727C36.8711 23.6738 32.3184 21.6348 27.293 21.6348C22.2676 21.6348 17.7148 23.6719 14.4199 26.9727C11.125 30.2676 9.08789 34.8184 9.08789 39.8457C9.08789 44.873 11.125 49.4238 14.4199 52.7188C17.7148 56.0137 22.2656 58.0508 27.293 58.0508ZM64.3711 87.5762H54.7773V82.875H45.2324V87.5762H35.6387C33.3086 87.5762 31.4082 89.4805 31.4082 91.8066V96.0371H68.5957V91.8066C68.5957 89.4805 66.6973 87.5762 64.3711 87.5762ZM94.9688 6.64062L90.334 3.96094L87.9043 8.16211L92.5391 10.8418L94.9688 6.64062ZM67.8633 48.2363V48.2422L70.1777 49.582L90.9785 13.5566L86.3398 10.877L65.5449 46.9023L67.8652 48.2363H67.8633ZM66.291 50.9492L64.4258 49.875L63.1191 55.2129L62.5938 57.3613L64.1875 55.834L68.1621 52.0312L66.2969 50.9512H66.291V50.9492Z" fill="url(#paint0_linear_4_33284)"/>
<defs>
<linearGradient id="paint0_linear_4_33284" x1="3.125" y1="10.7712" x2="108.301" y2="99.707" gradientUnits="userSpaceOnUse">
<stop stop-color="#D09A85"/>
<stop offset="0.5" stop-color="#B971B2"/>
<stop offset="1" stop-color="#5A46A7"/>
</linearGradient>
</defs>
</svg>
