<svg width="100" height="100" viewBox="0 0 100 100" fill="none" xmlns="http://www.w3.org/2000/svg">
<path fill-rule="evenodd" clip-rule="evenodd" d="M43.0873 43.7193L46.5193 51.9738C46.876 52.8314 46.5102 53.8123 45.6844 54.2371L43.1076 55.5629C42.6475 55.7996 42.1619 55.8297 41.676 55.6512C41.1902 55.4728 40.8414 55.1349 40.6418 54.6574L36.7762 45.4105L43.0873 43.7193ZM64.6861 68.5451L94.707 94.5629C94.849 94.1552 94.9218 93.7267 94.9227 93.2951V43.9248C94.9227 43.4826 94.8463 43.0605 94.7117 42.6662L64.6861 68.5451ZM50.1174 75.9441L91.7229 40.0849C91.4898 40.0415 91.2533 40.019 91.0162 40.0178H80.6387C80.7555 43.6926 78.326 47.1379 74.6359 48.1265C71.2787 49.0262 67.7824 47.6605 65.8727 44.9101C60.1199 42.6967 53.1873 42.1164 46.8301 42.5467L50.1262 50.4742C51.2602 53.2017 50.0959 56.3603 47.4713 57.7107L44.8945 59.0365C43.4648 59.7721 41.8387 59.8722 40.3295 59.3181C38.8232 58.765 37.6564 57.6441 37.0379 56.1642L32.9146 46.3012C27.8328 46.8828 22.8627 44.347 20.2953 40.0178H8.96348L50.1174 75.9441ZM51.3852 80.0107L61.6955 71.1238L91.7117 97.1351C91.4869 97.1765 91.2539 97.2015 91.0162 97.2015H8.97539L38.6701 71.1349L48.8266 80.0008C49.1814 80.3124 49.6377 80.4837 50.11 80.4826C50.5778 80.4828 51.0302 80.3154 51.3852 80.0107ZM35.7018 68.5451L5.5002 95.0529C5.22332 94.5083 5.07872 93.9061 5.07812 93.2951V43.9248C5.07812 43.2955 5.23105 42.7041 5.49648 42.1762L35.7018 68.5451ZM82.4133 30.9131L88.552 32.5578C89.5338 32.8209 90.5434 32.2318 90.8039 31.2508C91.065 30.2683 90.477 29.2603 89.4963 28.9976L83.3576 27.3529C82.3758 27.0898 81.3662 27.6789 81.1057 28.6599C80.8443 29.6424 81.4324 30.6504 82.4133 30.9131ZM79.4576 12.7978L83.9514 8.30408C84.6693 7.58611 84.6746 6.41932 83.9572 5.699C83.2408 4.97967 82.0723 4.9742 81.3533 5.69314L76.8596 10.1869C76.1416 10.9049 76.1363 12.0717 76.8537 12.792C77.5701 13.5113 78.7387 13.5168 79.4576 12.7978ZM84.8535 21.0689L90.6729 19.5096C91.6607 19.2449 92.2469 18.2297 91.9822 17.2418C91.7176 16.2539 90.7023 15.6678 89.7145 15.9324L83.8949 17.4918C83.4245 17.6224 83.0248 17.9336 82.7826 18.3575C82.5404 18.7814 82.4755 19.2837 82.6018 19.7553C82.7282 20.2269 83.0357 20.6294 83.4574 20.8755C83.8791 21.1215 84.3808 21.191 84.8535 21.0689ZM73.4104 27.3187C73.6329 27.2903 73.8532 27.2468 74.0699 27.1887C76.7223 26.4779 78.2963 23.7517 77.5855 21.0994C76.8748 18.4471 74.1486 16.8732 71.4963 17.5838C71.2796 17.6419 71.067 17.7144 70.86 17.801L67.6744 5.91209C67.0764 3.68006 64.7607 2.34314 62.5287 2.94119C60.4496 3.49822 59.1189 5.56443 59.4715 7.68728L59.4713 7.68748C55.5746 12.982 48.9621 18.1834 40.8312 21.9502L45.3305 38.7414C54.259 37.9469 62.5996 39.1801 68.6217 41.817H68.6219C69.3867 43.784 71.5422 44.9109 73.625 44.3529C75.8481 43.7572 77.1916 41.4301 76.5959 39.2072L73.4104 27.3187ZM41.6402 40.0631L33.759 42.1748C28.9701 43.458 24.0021 40.5896 22.7189 35.801C21.4357 31.0123 24.3041 26.0439 29.093 24.7607L36.9742 22.649C38.5295 28.4537 40.0844 34.2584 41.6402 40.0631Z" fill="url(#paint0_linear_4_33314)"/>
<defs>
<linearGradient id="paint0_linear_4_33314" x1="5.713" y1="2.79846" x2="106.25" y2="106.836" gradientUnits="userSpaceOnUse">
<stop stop-color="#D09A85"/>
<stop offset="0.5" stop-color="#B971B2"/>
<stop offset="1" stop-color="#5A46A7"/>
</linearGradient>
</defs>
</svg>
