<svg width="100" height="100" viewBox="0 0 100 100" fill="none" xmlns="http://www.w3.org/2000/svg">
<path d="M59.375 68.75C59.0921 68.75 58.8145 68.6733 58.5719 68.5279C58.3292 68.3826 58.1305 68.1741 57.9971 67.9246C57.8636 67.6752 57.8004 67.3942 57.8141 67.1117C57.8278 66.8291 57.918 66.5556 58.075 66.3203C60.0359 63.3781 60.5437 57.1641 59.9219 52.6875C58.9219 55.2734 57.3375 57.1219 55.8734 58.8281C53.5609 61.5297 51.5625 63.8594 51.5625 68.75C51.5625 73.0578 55.0672 76.5625 59.375 76.5625C63.6828 76.5625 67.1875 73.0578 67.1875 68.75C67.1875 67.2141 67.1875 65.1359 66.3156 63.1203C64.7219 66.4859 61.3219 68.75 59.375 68.75Z" fill="url(#paint0_linear_4_33298)"/>
<path d="M89.0625 39.0625H29.6875C26.2406 39.0625 23.4375 41.8656 23.4375 45.3125V79.6875C23.4375 83.1344 26.2406 85.9375 29.6875 85.9375H53.125V93.75C53.1251 94.059 53.2167 94.361 53.3884 94.6179C53.5601 94.8748 53.8041 95.075 54.0896 95.1932C54.3751 95.3115 54.6892 95.3424 54.9922 95.2822C55.2953 95.2219 55.5737 95.0731 55.7922 94.8547L64.7094 85.9375H89.0625C92.5094 85.9375 95.3125 83.1344 95.3125 79.6875V45.3125C95.3125 41.8656 92.5094 39.0625 89.0625 39.0625ZM59.375 79.6875C53.3438 79.6875 48.4375 74.7812 48.4375 68.75C48.4375 62.7031 51.1281 59.5656 53.5016 56.7969C55.8141 54.0953 57.8125 51.7656 57.8125 46.875C57.8126 46.566 57.9042 46.264 58.0759 46.0071C58.2476 45.7502 58.4916 45.55 58.7771 45.4318C59.0626 45.3135 59.3767 45.2826 59.6797 45.3428C59.9828 45.4031 60.2612 45.5519 60.4797 45.7703C63.4531 48.7437 63.9109 57.2859 62.5063 63.3547C63.3719 62.3063 64.0625 60.9453 64.0625 59.375C64.0626 59.066 64.1542 58.764 64.3259 58.5071C64.4976 58.2502 64.7416 58.05 65.0271 57.9318C65.3126 57.8135 65.6267 57.7826 65.9297 57.8428C66.2328 57.9031 66.5112 58.0519 66.7297 58.2703C70.3125 61.8531 70.3125 66.3406 70.3125 68.75C70.3125 74.7812 65.4062 79.6875 59.375 79.6875Z" fill="url(#paint1_linear_4_33298)"/>
<path d="M20.3125 45.3125C20.3125 40.1422 24.5172 35.9375 29.6875 35.9375H76.5625V10.9375C76.5625 7.49062 73.7594 4.6875 70.3125 4.6875H10.9375C7.49062 4.6875 4.6875 7.49062 4.6875 10.9375V45.3125C4.6875 48.7594 7.49062 51.5625 10.9375 51.5625H20.3125V45.3125ZM54.6875 32.8125H42.1875C41.7731 32.8125 41.3757 32.6479 41.0826 32.3549C40.7896 32.0618 40.625 31.6644 40.625 31.25C40.625 30.8356 40.7896 30.4382 41.0826 30.1451C41.3757 29.8521 41.7731 29.6875 42.1875 29.6875H54.6875C55.1019 29.6875 55.4993 29.8521 55.7924 30.1451C56.0854 30.4382 56.25 30.8356 56.25 31.25C56.25 31.6644 56.0854 32.0618 55.7924 32.3549C55.4993 32.6479 55.1019 32.8125 54.6875 32.8125ZM64.0625 32.8125H60.9375C60.5231 32.8125 60.1257 32.6479 59.8326 32.3549C59.5396 32.0618 59.375 31.6644 59.375 31.25C59.375 30.8356 59.5396 30.4382 59.8326 30.1451C60.1257 29.8521 60.5231 29.6875 60.9375 29.6875H64.0625C64.4769 29.6875 64.8743 29.8521 65.1674 30.1451C65.4604 30.4382 65.625 30.8356 65.625 31.25C65.625 31.6644 65.4604 32.0618 65.1674 32.3549C64.8743 32.6479 64.4769 32.8125 64.0625 32.8125ZM64.0625 25H46.875C46.4606 25 46.0632 24.8354 45.7701 24.5424C45.4771 24.2493 45.3125 23.8519 45.3125 23.4375C45.3125 23.0231 45.4771 22.6257 45.7701 22.3326C46.0632 22.0396 46.4606 21.875 46.875 21.875H64.0625C64.4769 21.875 64.8743 22.0396 65.1674 22.3326C65.4604 22.6257 65.625 23.0231 65.625 23.4375C65.625 23.8519 65.4604 24.2493 65.1674 24.5424C64.8743 24.8354 64.4769 25 64.0625 25ZM62.625 15.0312C62.7031 14.8438 62.8125 14.6719 62.9531 14.5156C63.5312 13.9375 64.5781 13.9375 65.1719 14.5156C65.3125 14.6719 65.4219 14.8281 65.5 15.0312C65.5801 15.2191 65.6225 15.4208 65.625 15.625C65.6225 15.8292 65.5801 16.0309 65.5 16.2188C65.4219 16.4219 65.3125 16.5781 65.1719 16.7344C64.875 17.0156 64.4688 17.1875 64.0625 17.1875C63.9688 17.1875 63.8594 17.1719 63.75 17.1562C63.6522 17.1389 63.5574 17.1074 63.4688 17.0625C63.3692 17.0283 63.2746 16.981 63.1875 16.9219L62.9531 16.7344C62.6719 16.4375 62.5 16.0312 62.5 15.625C62.5025 15.4208 62.5449 15.2191 62.625 15.0312ZM32.8125 14.0625H57.8125C58.2269 14.0625 58.6243 14.2271 58.9174 14.5201C59.2104 14.8132 59.375 15.2106 59.375 15.625C59.375 16.0394 59.2104 16.4368 58.9174 16.7299C58.6243 17.0229 58.2269 17.1875 57.8125 17.1875H32.8125C32.3981 17.1875 32.0007 17.0229 31.7076 16.7299C31.4146 16.4368 31.25 16.0394 31.25 15.625C31.25 15.2106 31.4146 14.8132 31.7076 14.5201C32.0007 14.2271 32.3981 14.0625 32.8125 14.0625ZM17.1875 14.0625H26.5625C26.9769 14.0625 27.3743 14.2271 27.6674 14.5201C27.9604 14.8132 28.125 15.2106 28.125 15.625C28.125 16.0394 27.9604 16.4368 27.6674 16.7299C27.3743 17.0229 26.9769 17.1875 26.5625 17.1875H17.1875C16.7731 17.1875 16.3757 17.0229 16.0826 16.7299C15.7896 16.4368 15.625 16.0394 15.625 15.625C15.625 15.2106 15.7896 14.8132 16.0826 14.5201C16.3757 14.2271 16.7731 14.0625 17.1875 14.0625ZM17.1875 21.875H40.625C41.0394 21.875 41.4368 22.0396 41.7299 22.3326C42.0229 22.6257 42.1875 23.0231 42.1875 23.4375C42.1875 23.8519 42.0229 24.2493 41.7299 24.5424C41.4368 24.8354 41.0394 25 40.625 25H17.1875C16.7731 25 16.3757 24.8354 16.0826 24.5424C15.7896 24.2493 15.625 23.8519 15.625 23.4375C15.625 23.0231 15.7896 22.6257 16.0826 22.3326C16.3757 22.0396 16.7731 21.875 17.1875 21.875ZM15.625 31.25C15.625 30.8356 15.7896 30.4382 16.0826 30.1451C16.3757 29.8521 16.7731 29.6875 17.1875 29.6875H35.9375C36.3519 29.6875 36.7493 29.8521 37.0424 30.1451C37.3354 30.4382 37.5 30.8356 37.5 31.25C37.5 31.6644 37.3354 32.0618 37.0424 32.3549C36.7493 32.6479 36.3519 32.8125 35.9375 32.8125H17.1875C16.7731 32.8125 16.3757 32.6479 16.0826 32.3549C15.7896 32.0618 15.625 31.6644 15.625 31.25Z" fill="url(#paint2_linear_4_33298)"/>
<defs>
<linearGradient id="paint0_linear_4_33298" x1="52.0845" y1="52.6875" x2="75.4436" y2="67.6233" gradientUnits="userSpaceOnUse">
<stop stop-color="#D09A85"/>
<stop offset="0.5" stop-color="#B971B2"/>
<stop offset="1" stop-color="#5A46A7"/>
</linearGradient>
<linearGradient id="paint1_linear_4_33298" x1="25.8389" y1="39.0625" x2="85.0069" y2="112.928" gradientUnits="userSpaceOnUse">
<stop stop-color="#D09A85"/>
<stop offset="0.5" stop-color="#B971B2"/>
<stop offset="1" stop-color="#5A46A7"/>
</linearGradient>
<linearGradient id="paint2_linear_4_33298" x1="7.08889" y1="4.6875" x2="53.7509" y2="74.5903" gradientUnits="userSpaceOnUse">
<stop stop-color="#D09A85"/>
<stop offset="0.5" stop-color="#B971B2"/>
<stop offset="1" stop-color="#5A46A7"/>
</linearGradient>
</defs>
</svg>
