<svg width="100" height="100" viewBox="0 0 100 100" fill="none" xmlns="http://www.w3.org/2000/svg">
<path d="M4.16667 4.16663C3.0616 4.16663 2.00179 4.60561 1.22039 5.38701C0.438987 6.16842 0 7.22822 0 8.33329C0 9.43836 0.438987 10.4982 1.22039 11.2796C2.00179 12.061 3.0616 12.5 4.16667 12.5H11.5833C12.189 12.501 12.779 12.6922 13.2702 13.0466C13.7613 13.4009 14.1288 13.9005 14.3208 14.475L28.0583 55.6958C28.6708 57.5291 28.7458 59.4958 28.2792 61.3708L27.15 65.9C25.4875 72.5416 30.6583 79.1666 37.5 79.1666H87.5C88.6051 79.1666 89.6649 78.7276 90.4463 77.9462C91.2277 77.1648 91.6667 76.105 91.6667 75C91.6667 73.8949 91.2277 72.8351 90.4463 72.0537C89.6649 71.2723 88.6051 70.8333 87.5 70.8333H37.5C35.875 70.8333 34.8333 69.5 35.2292 67.9291L36.0833 64.5208C36.2272 63.9443 36.5596 63.4324 37.0276 63.0663C37.4956 62.7001 38.0725 62.5008 38.6667 62.5H83.3333C84.2089 62.501 85.0625 62.2263 85.7731 61.7147C86.4837 61.2031 87.015 60.4807 87.2917 59.65L98.3958 26.3166C98.6045 25.6902 98.6613 25.0232 98.5615 24.3706C98.4618 23.718 98.2084 23.0984 97.8223 22.5629C97.4361 22.0274 96.9282 21.5913 96.3404 21.2906C95.7527 20.9899 95.1019 20.8331 94.4417 20.8333H27.3125C26.7061 20.8331 26.1152 20.6423 25.6232 20.2879C25.1312 19.9335 24.7631 19.4334 24.5708 18.8583L20.6208 7.01663C20.3444 6.1866 19.8137 5.46465 19.104 4.95312C18.3942 4.44158 17.5415 4.16642 16.6667 4.16663H4.16667ZM33.3333 83.3333C31.1232 83.3333 29.0036 84.2113 27.4408 85.7741C25.878 87.3369 25 89.4565 25 91.6666C25 93.8768 25.878 95.9964 27.4408 97.5592C29.0036 99.122 31.1232 100 33.3333 100C35.5435 100 37.6631 99.122 39.2259 97.5592C40.7887 95.9964 41.6667 93.8768 41.6667 91.6666C41.6667 89.4565 40.7887 87.3369 39.2259 85.7741C37.6631 84.2113 35.5435 83.3333 33.3333 83.3333ZM83.3333 83.3333C81.1232 83.3333 79.0036 84.2113 77.4408 85.7741C75.878 87.3369 75 89.4565 75 91.6666C75 93.8768 75.878 95.9964 77.4408 97.5592C79.0036 99.122 81.1232 100 83.3333 100C85.5435 100 87.6631 99.122 89.2259 97.5592C90.7887 95.9964 91.6667 93.8768 91.6667 91.6666C91.6667 89.4565 90.7887 87.3369 89.2259 85.7741C87.6631 84.2113 85.5435 83.3333 83.3333 83.3333Z" fill="url(#paint0_linear_4_32475)"/>
<defs>
<linearGradient id="paint0_linear_4_32475" x1="0.0601017" y1="4.16663" x2="117.187" y2="116.699" gradientUnits="userSpaceOnUse">
<stop stop-color="#D09A85"/>
<stop offset="0.5" stop-color="#B971B2"/>
<stop offset="1" stop-color="#5A46A7"/>
</linearGradient>
</defs>
</svg>
