<svg width="100" height="100" viewBox="0 0 100 100" fill="none" xmlns="http://www.w3.org/2000/svg">
<path d="M98.1836 10.5762H31.5039C30.5078 10.5762 29.6875 11.3965 29.6875 12.3926V41.9785H56.1074C59.6836 41.9785 62.6074 44.9023 62.6074 48.4727V59.0039C62.6074 62.5742 59.6836 65.4981 56.1074 65.4981H55.2109V69.1309H56.1074C59.6836 69.1309 62.6074 72.0547 62.6074 75.625V80.8906H98.1836C99.1855 80.8906 100 80.0762 100 79.0742V12.3906C100 11.3945 99.1855 10.5762 98.1836 10.5762ZM90.7148 41.4688C90.7148 42.3594 89.9941 43.0801 89.1035 43.0801C88.2129 43.0801 87.4863 42.3594 87.4863 41.4688V25.3691L68.8223 44.0371C68.1914 44.668 67.166 44.668 66.541 44.0371C66.391 43.8874 66.272 43.7096 66.1908 43.5139C66.1096 43.3182 66.0678 43.1084 66.0678 42.8965C66.0678 42.6846 66.1096 42.4748 66.1908 42.279C66.272 42.0833 66.391 41.9055 66.541 41.7559L85.209 23.0879H69.1094C68.2188 23.0879 67.4922 22.3672 67.4922 21.4766C67.4922 20.5859 68.2168 19.8652 69.1094 19.8652H89.1016C89.9922 19.8652 90.7129 20.5859 90.7129 21.4766V41.4688H90.7148ZM7.39258 69.1289V65.4961H51.9883V69.1289H7.39258ZM3.27344 62.2695H56.1074C57.9062 62.2695 59.3789 60.7969 59.3789 59.0039V48.4727C59.3789 46.6738 57.9062 45.2012 56.1074 45.2012H3.27344C1.47266 45.1992 0 46.6719 0 48.4727V59.0039C0 60.7969 1.47266 62.2695 3.27344 62.2695ZM47.166 52.1211H50.1328C51.0234 52.1211 51.75 52.8457 51.75 53.7383C51.75 54.6309 51.0254 55.3496 50.1328 55.3496H47.166C46.2754 55.3496 45.5547 54.6289 45.5547 53.7383C45.5547 52.8477 46.2734 52.1211 47.166 52.1211ZM9.24609 52.1211H36.8223C37.7129 52.1211 38.4336 52.8457 38.4336 53.7383C38.4336 54.6309 37.7129 55.3496 36.8223 55.3496H9.24609C8.35547 55.3496 7.62891 54.6289 7.62891 53.7383C7.62891 52.8477 8.35547 52.1211 9.24609 52.1211ZM56.1074 72.3555H3.27344C1.47266 72.3555 0 73.8281 0 75.623V86.1543C0 87.9531 1.47266 89.4258 3.27148 89.4258H56.1055C57.9043 89.4258 59.377 87.9531 59.377 86.1543V75.623C59.3789 73.8281 57.9062 72.3555 56.1074 72.3555ZM36.8242 82.5039H9.24609C8.35547 82.5039 7.62891 81.7793 7.62891 80.8867C7.62891 79.9961 8.35352 79.2754 9.24609 79.2754H36.8223C37.7129 79.2754 38.4336 79.9961 38.4336 80.8867C38.4336 81.7793 37.7148 82.5039 36.8242 82.5039ZM50.1328 82.5039H47.166C46.2754 82.5039 45.5547 81.7793 45.5547 80.8867C45.5547 79.9961 46.2754 79.2754 47.166 79.2754H50.1328C51.0234 79.2754 51.75 79.9961 51.75 80.8867C51.75 81.7793 51.0234 82.5039 50.1328 82.5039Z" fill="url(#paint0_linear_4_31249)"/>
<defs>
<linearGradient id="paint0_linear_4_31249" x1="5.17578" y1="-9.1797" x2="108.594" y2="92.1875" gradientUnits="userSpaceOnUse">
<stop stop-color="#D09A85"/>
<stop offset="0.492" stop-color="#B971B2"/>
<stop offset="1" stop-color="#5A46A7"/>
</linearGradient>
</defs>
</svg>
