<svg width="100" height="100" viewBox="0 0 100 100" fill="none" xmlns="http://www.w3.org/2000/svg">
<path d="M50 71.875C41.3844 71.875 34.375 64.8656 34.375 56.25V43.75C34.375 35.1344 41.3844 28.125 50 28.125H56.25V15.625C56.25 14.7962 55.9208 14.0013 55.3347 13.4153C54.7487 12.8292 53.9538 12.5 53.125 12.5H40.625C40.625 14.1576 39.9665 15.7473 38.7944 16.9194C37.6223 18.0915 36.0326 18.75 34.375 18.75C32.7174 18.75 31.1277 18.0915 29.9556 16.9194C28.7835 15.7473 28.125 14.1576 28.125 12.5H15.625C14.7962 12.5 14.0013 12.8292 13.4153 13.4153C12.8292 14.0013 12.5 14.7962 12.5 15.625V84.375C12.5 85.2038 12.8292 85.9987 13.4153 86.5847C14.0013 87.1708 14.7962 87.5 15.625 87.5H53.125C53.9538 87.5 54.7487 87.1708 55.3347 86.5847C55.9208 85.9987 56.25 85.2038 56.25 84.375V71.875H50Z" fill="url(#paint0_linear_4_51826)"/>
<path d="M60.3094 71.875H59.375V84.375C59.375 87.8219 56.5719 90.625 53.125 90.625H15.625C12.1781 90.625 9.375 87.8219 9.375 84.375V15.625C9.375 12.1781 12.1781 9.375 15.625 9.375H53.125C56.5719 9.375 59.375 12.1781 59.375 15.625V28.125H62.5V15.625C62.5 10.4562 58.2938 6.25 53.125 6.25H15.625C10.4562 6.25 6.25 10.4562 6.25 15.625V84.375C6.25 89.5437 10.4562 93.75 15.625 93.75H53.125C58.2938 93.75 62.5 89.5437 62.5 84.375V73.6281L60.3094 71.875Z" fill="url(#paint1_linear_4_51826)"/>
<path d="M81.25 31.25H50C43.1062 31.25 37.5 36.8562 37.5 43.75V56.25C37.5 63.1438 43.1062 68.75 50 68.75H61.4062L76.1719 80.5656C76.7262 81.0092 77.4151 81.2506 78.125 81.25H78.1875C78.715 81.2504 79.234 81.1172 79.6962 80.8629C80.1583 80.6086 80.5486 80.2415 80.8306 79.7957C81.1126 79.3499 81.2772 78.84 81.309 78.3134C81.3408 77.7869 81.2388 77.2609 81.0125 76.7844L79 68.75H81.25C88.1437 68.75 93.75 63.1438 93.75 56.25V43.75C93.75 36.8562 88.1437 31.25 81.25 31.25ZM55.6875 56.6125C55.9945 56.8811 56.1843 57.2591 56.2164 57.6657C56.2484 58.0724 56.1202 58.4754 55.859 58.7888C55.5979 59.1021 55.2246 59.301 54.8188 59.3428C54.4131 59.3846 54.007 59.266 53.6875 59.0125L44.3125 51.2C44.1357 51.054 43.9933 50.8707 43.8956 50.6632C43.7978 50.4558 43.7472 50.2293 43.7472 50C43.7472 49.7707 43.7978 49.5442 43.8956 49.3368C43.9933 49.1293 44.1357 48.946 44.3125 48.8L53.6875 40.9875C54.007 40.734 54.4131 40.6154 54.8188 40.6572C55.2246 40.699 55.5979 40.8979 55.859 41.2112C56.1202 41.5246 56.2484 41.9276 56.2164 42.3343C56.1843 42.7409 55.9945 43.1189 55.6875 43.3875L47.7531 50L55.6875 56.6125ZM71.6562 42.9906L62.2812 58.6156C62.0682 58.9712 61.7227 59.2276 61.3207 59.3284C60.9187 59.4292 60.4931 59.3661 60.1375 59.1531C59.7819 58.9401 59.5256 58.5946 59.4248 58.1926C59.324 57.7905 59.387 57.3649 59.6 57.0094L68.975 41.3844C69.0763 41.2004 69.2137 41.0387 69.3789 40.9091C69.5441 40.7794 69.7338 40.6843 69.9366 40.6296C70.1394 40.5749 70.3511 40.5616 70.5591 40.5906C70.7671 40.6196 70.9672 40.6902 71.1473 40.7982C71.3274 40.9062 71.4839 41.0495 71.6074 41.2193C71.7309 41.3892 71.8189 41.5823 71.8662 41.7869C71.9134 41.9916 71.9188 42.2037 71.8822 42.4105C71.8456 42.6173 71.7708 42.8146 71.6562 42.9906ZM86.9375 51.2L77.5625 59.0125C77.4052 59.1446 77.2234 59.2442 77.0275 59.3056C76.8315 59.3671 76.6254 59.3891 76.4209 59.3705C76.2164 59.3519 76.0176 59.2931 75.8359 59.1973C75.6543 59.1015 75.4934 58.9707 75.3625 58.8125C75.0974 58.4942 74.9695 58.0836 75.007 57.6711C75.0446 57.2586 75.2443 56.8778 75.5625 56.6125L83.4969 50L75.5594 43.3875C75.4018 43.256 75.2717 43.0947 75.1764 42.9129C75.0811 42.7311 75.0226 42.5322 75.0042 42.3278C74.9858 42.1234 75.0078 41.9173 75.069 41.7214C75.1302 41.5255 75.2294 41.3435 75.3609 41.1859C75.4925 41.0283 75.6537 40.8982 75.8356 40.803C76.0174 40.7077 76.2162 40.6492 76.4206 40.6308C76.6251 40.6123 76.8311 40.6344 77.027 40.6956C77.223 40.7568 77.4049 40.856 77.5625 40.9875L86.9375 48.8C87.1143 48.946 87.2567 49.1293 87.3544 49.3368C87.4522 49.5442 87.5028 49.7707 87.5028 50C87.5028 50.2293 87.4522 50.4558 87.3544 50.6632C87.2567 50.8707 87.1143 51.054 86.9375 51.2Z" fill="url(#paint2_linear_4_51826)"/>
<defs>
<linearGradient id="paint0_linear_4_51826" x1="14.6141" y1="12.5" x2="76.6843" y2="52.5813" gradientUnits="userSpaceOnUse">
<stop stop-color="#D09A85"/>
<stop offset="0.5" stop-color="#B971B2"/>
<stop offset="1" stop-color="#5A46A7"/>
</linearGradient>
<linearGradient id="paint1_linear_4_51826" x1="8.96819" y1="6.25" x2="84.0345" y2="59.6697" gradientUnits="userSpaceOnUse">
<stop stop-color="#D09A85"/>
<stop offset="0.5" stop-color="#B971B2"/>
<stop offset="1" stop-color="#5A46A7"/>
</linearGradient>
<linearGradient id="paint2_linear_4_51826" x1="40.2182" y1="31.25" x2="84.5479" y2="86.4565" gradientUnits="userSpaceOnUse">
<stop stop-color="#D09A85"/>
<stop offset="0.5" stop-color="#B971B2"/>
<stop offset="1" stop-color="#5A46A7"/>
</linearGradient>
</defs>
</svg>
