<svg width="33" height="35" viewBox="0 0 33 35" fill="none" xmlns="http://www.w3.org/2000/svg">
<path d="M32.0301 34.4552C32.0101 34.7654 31.7389 35 31.4281 35H1.57196C1.26119 35 0.989938 34.7654 0.970032 34.4552C0.96474 34.3756 0.975869 34.2956 1.00273 34.2204C1.02959 34.1452 1.07161 34.0763 1.12618 34.018C1.18075 33.9597 1.24672 33.9132 1.31998 33.8815C1.39325 33.8497 1.47227 33.8333 1.55213 33.8333H3.22921V31.7917C3.22921 31.637 3.29067 31.4886 3.40006 31.3792C3.50946 31.2698 3.65783 31.2083 3.81254 31.2083H10.7396C10.8943 31.2083 11.0427 31.2698 11.1521 31.3792C11.2615 31.4886 11.323 31.637 11.323 31.7917V33.8333H21.6771V31.7917C21.6771 31.637 21.7386 31.4886 21.848 31.3792C21.9574 31.2698 22.1058 31.2083 22.2605 31.2083H29.1875C29.3423 31.2083 29.4906 31.2698 29.6 31.3792C29.7094 31.4886 29.7709 31.637 29.7709 31.7917V33.8333H31.448C31.5278 33.8333 31.6068 33.8497 31.6801 33.8815C31.7534 33.9132 31.8193 33.9597 31.8739 34.018C31.9285 34.0763 31.9705 34.1452 31.9974 34.2204C32.0242 34.2956 32.0353 34.3756 32.0301 34.4552ZM31.0092 29.4969C30.9893 29.807 30.7181 30.0417 30.4073 30.0417H21.6771V25.9583C21.6771 25.8036 21.7386 25.6552 21.848 25.5459C21.9574 25.4365 22.1058 25.375 22.2605 25.375H29.1875C29.3423 25.375 29.4906 25.4365 29.6 25.5459C29.7094 25.6552 29.7709 25.8036 29.7709 25.9583V28.875H30.4271C30.507 28.875 30.586 28.8914 30.6593 28.9231C30.7325 28.9549 30.7985 29.0014 30.8531 29.0597C30.9076 29.118 30.9497 29.1869 30.9765 29.2621C31.0034 29.3373 31.0145 29.4172 31.0092 29.4969ZM30.4073 23.0417H29.7709V14.7292C29.7709 14.5745 29.7094 14.4261 29.6 14.3167C29.4906 14.2073 29.3423 14.1458 29.1875 14.1458H3.81254C3.65783 14.1458 3.50946 14.2073 3.40006 14.3167C3.29067 14.4261 3.22921 14.5745 3.22921 14.7292V23.0417H2.59279C2.28202 23.0417 2.01077 23.2763 1.99086 23.5864C1.98557 23.6661 1.9967 23.746 2.02356 23.8212C2.05042 23.8964 2.09244 23.9653 2.14701 24.0236C2.20158 24.0819 2.26755 24.1284 2.34082 24.1602C2.41409 24.192 2.4931 24.2083 2.57296 24.2083H11.9594C12.2701 24.2083 12.5414 23.9737 12.5613 23.6636C12.5666 23.5839 12.5555 23.504 12.5286 23.4288C12.5017 23.3535 12.4597 23.2847 12.4052 23.2264C12.3506 23.168 12.2846 23.1216 12.2114 23.0898C12.1381 23.058 12.0591 23.0417 11.9792 23.0417H11.323V22.5243C11.323 19.6741 13.5989 17.3091 16.449 17.2815C19.327 17.2536 21.6771 19.5867 21.6771 22.4583V23.0417H21.0407C20.7299 23.0417 20.4587 23.2763 20.4388 23.5864C20.4335 23.6661 20.4446 23.746 20.4715 23.8212C20.4983 23.8964 20.5404 23.9653 20.5949 24.0236C20.6495 24.0819 20.7155 24.1284 20.7887 24.1602C20.862 24.192 20.941 24.2083 21.0209 24.2083H30.4271C30.507 24.2083 30.586 24.192 30.6593 24.1602C30.7325 24.1284 30.7985 24.0819 30.8531 24.0236C30.9076 23.9653 30.9497 23.8964 30.9765 23.8212C31.0034 23.746 31.0145 23.6661 31.0092 23.5864C30.9893 23.2763 30.7181 23.0417 30.4073 23.0417ZM7.31254 18.5208C6.66942 18.5208 6.14588 17.9973 6.14588 17.3542C6.14588 16.711 6.66942 16.1875 7.31254 16.1875C7.95567 16.1875 8.47921 16.711 8.47921 17.3542C8.47921 17.9973 7.95567 18.5208 7.31254 18.5208ZM25.6875 18.5208C25.0444 18.5208 24.5209 17.9973 24.5209 17.3542C24.5209 16.711 25.0444 16.1875 25.6875 16.1875C26.3307 16.1875 26.8542 16.711 26.8542 17.3542C26.8542 17.9973 26.3307 18.5208 25.6875 18.5208ZM11.323 25.9583V30.0417H2.59279C2.28202 30.0417 2.01077 29.807 1.99086 29.4969C1.98557 29.4172 1.9967 29.3373 2.02356 29.2621C2.05042 29.1869 2.09244 29.118 2.14701 29.0597C2.20158 29.0014 2.26755 28.9549 2.34082 28.9231C2.41409 28.8914 2.4931 28.875 2.57296 28.875H3.22921V25.9583C3.22921 25.8036 3.29067 25.6552 3.40006 25.5459C3.50946 25.4365 3.65783 25.375 3.81254 25.375H10.7396C10.8943 25.375 11.0427 25.4365 11.1521 25.5459C11.2615 25.6552 11.323 25.8036 11.323 25.9583ZM31.0092 10.5386C30.9893 10.8487 30.7181 11.0833 30.4073 11.0833H29.7709V12.3958C29.7709 12.5505 29.7094 12.6989 29.6 12.8083C29.4906 12.9177 29.3423 12.9792 29.1875 12.9792H3.81254C3.65783 12.9792 3.50946 12.9177 3.40006 12.8083C3.29067 12.6989 3.22921 12.5505 3.22921 12.3958V11.0833H2.59279C2.28202 11.0833 2.01077 10.8487 1.99086 10.5386C1.98557 10.4589 1.9967 10.379 2.02356 10.3038C2.05042 10.2285 2.09244 10.1597 2.14701 10.1014C2.20158 10.043 2.26755 9.99657 2.34082 9.9648C2.41409 9.93303 2.4931 9.91665 2.57296 9.91667H30.4271C30.507 9.91665 30.586 9.93303 30.6593 9.9648C30.7325 9.99657 30.7985 10.043 30.8531 10.1014C30.9076 10.1597 30.9497 10.2285 30.9765 10.3038C31.0034 10.379 31.0145 10.4589 31.0092 10.5386ZM27.5834 7.58333V8.16667C27.5834 8.32138 27.5219 8.46975 27.4125 8.57915C27.3031 8.68854 27.1548 8.75 27 8.75H6.00004C5.84533 8.75 5.69696 8.68854 5.58756 8.57915C5.47817 8.46975 5.41671 8.32138 5.41671 8.16667V7.58333C5.41671 7.42862 5.47817 7.28025 5.58756 7.17085C5.69696 7.06146 5.84533 7 6.00004 7H27C27.1548 7 27.3031 7.06146 27.4125 7.17085C27.5219 7.28025 27.5834 7.42862 27.5834 7.58333ZM18.628 1.3125H14.3721C13.921 1.3125 13.6406 0.822281 13.8693 0.433417L13.9553 0.287292C14.0069 0.199827 14.0805 0.127336 14.1687 0.0769597C14.257 0.026583 14.3568 5.87379e-05 14.4584 0L18.5417 0C18.7481 0 18.9398 0.109375 19.0448 0.287292L19.1308 0.433417C19.3595 0.822281 19.0791 1.3125 18.628 1.3125ZM25.1771 3.0625V5.25C25.1771 5.40471 25.1157 5.55308 25.0063 5.66248C24.8969 5.77187 24.7485 5.83333 24.5938 5.83333H8.40629C8.25158 5.83333 8.10321 5.77187 7.99381 5.66248C7.88442 5.55308 7.82296 5.40471 7.82296 5.25V3.0625C7.82296 2.90779 7.88442 2.75942 7.99381 2.65002C8.10321 2.54062 8.25158 2.47917 8.40629 2.47917H24.5938C24.7485 2.47917 24.8969 2.54062 25.0063 2.65002C25.1157 2.75942 25.1771 2.90779 25.1771 3.0625Z" fill="#8A49D6"/>
</svg>
