<svg width="33" height="35" viewBox="0 0 33 35" fill="none" xmlns="http://www.w3.org/2000/svg">
<path d="M32.03 34.4552C32.0101 34.7654 31.7388 35 31.4281 35H1.5719C1.26113 35 0.989877 34.7654 0.969971 34.4552C0.964679 34.3756 0.975808 34.2956 1.00267 34.2204C1.02953 34.1452 1.07154 34.0763 1.12612 34.018C1.18069 33.9597 1.24665 33.9132 1.31992 33.8815C1.39319 33.8497 1.4722 33.8333 1.55206 33.8333H3.22915V31.7917C3.22915 31.637 3.29061 31.4886 3.4 31.3792C3.5094 31.2698 3.65777 31.2083 3.81248 31.2083H10.7396C10.8943 31.2083 11.0426 31.2698 11.152 31.3792C11.2614 31.4886 11.3229 31.637 11.3229 31.7917V33.8333H21.6771V31.7917C21.6771 31.637 21.7385 31.4886 21.8479 31.3792C21.9573 31.2698 22.1057 31.2083 22.2604 31.2083H29.1875C29.3422 31.2083 29.4906 31.2698 29.6 31.3792C29.7094 31.4886 29.7708 31.637 29.7708 31.7917V33.8333H31.4479C31.5278 33.8333 31.6068 33.8497 31.68 33.8815C31.7533 33.9132 31.8193 33.9597 31.8738 34.018C31.9284 34.0763 31.9704 34.1452 31.9973 34.2204C32.0242 34.2956 32.0353 34.3756 32.03 34.4552ZM31.0092 29.4969C30.9893 29.807 30.718 30.0417 30.4072 30.0417H21.6771V25.9583C21.6771 25.8036 21.7385 25.6552 21.8479 25.5459C21.9573 25.4365 22.1057 25.375 22.2604 25.375H29.1875C29.3422 25.375 29.4906 25.4365 29.6 25.5459C29.7094 25.6552 29.7708 25.8036 29.7708 25.9583V28.875H30.4271C30.5069 28.875 30.5859 28.8914 30.6592 28.9231C30.7325 28.9549 30.7984 29.0014 30.853 29.0597C30.9076 29.118 30.9496 29.1869 30.9765 29.2621C31.0033 29.3373 31.0145 29.4172 31.0092 29.4969ZM30.4072 23.0417H29.7708V14.7292C29.7708 14.5745 29.7094 14.4261 29.6 14.3167C29.4906 14.2073 29.3422 14.1458 29.1875 14.1458H3.81248C3.65777 14.1458 3.5094 14.2073 3.4 14.3167C3.29061 14.4261 3.22915 14.5745 3.22915 14.7292V23.0417H2.59273C2.28196 23.0417 2.01071 23.2763 1.9908 23.5864C1.98551 23.6661 1.99664 23.746 2.0235 23.8212C2.05036 23.8964 2.09238 23.9653 2.14695 24.0236C2.20152 24.0819 2.26749 24.1284 2.34076 24.1602C2.41403 24.192 2.49304 24.2083 2.5729 24.2083H11.9593C12.2701 24.2083 12.5413 23.9737 12.5612 23.6636C12.5665 23.5839 12.5554 23.504 12.5285 23.4288C12.5017 23.3535 12.4597 23.2847 12.4051 23.2264C12.3505 23.168 12.2846 23.1216 12.2113 23.0898C12.138 23.058 12.059 23.0417 11.9791 23.0417H11.3229V22.5243C11.3229 19.6741 13.5988 17.3091 16.4489 17.2815C19.327 17.2536 21.6771 19.5867 21.6771 22.4583V23.0417H21.0406C20.7299 23.0417 20.4586 23.2763 20.4387 23.5864C20.4334 23.6661 20.4446 23.746 20.4714 23.8212C20.4983 23.8964 20.5403 23.9653 20.5949 24.0236C20.6494 24.0819 20.7154 24.1284 20.7887 24.1602C20.8619 24.192 20.941 24.2083 21.0208 24.2083H30.4271C30.5069 24.2083 30.5859 24.192 30.6592 24.1602C30.7325 24.1284 30.7984 24.0819 30.853 24.0236C30.9076 23.9653 30.9496 23.8964 30.9765 23.8212C31.0033 23.746 31.0145 23.6661 31.0092 23.5864C30.9893 23.2763 30.718 23.0417 30.4072 23.0417ZM7.31248 18.5208C6.66936 18.5208 6.14581 17.9973 6.14581 17.3542C6.14581 16.711 6.66936 16.1875 7.31248 16.1875C7.95561 16.1875 8.47915 16.711 8.47915 17.3542C8.47915 17.9973 7.95561 18.5208 7.31248 18.5208ZM25.6875 18.5208C25.0444 18.5208 24.5208 17.9973 24.5208 17.3542C24.5208 16.711 25.0444 16.1875 25.6875 16.1875C26.3306 16.1875 26.8541 16.711 26.8541 17.3542C26.8541 17.9973 26.3306 18.5208 25.6875 18.5208ZM11.3229 25.9583V30.0417H2.59273C2.28196 30.0417 2.01071 29.807 1.9908 29.4969C1.98551 29.4172 1.99664 29.3373 2.0235 29.2621C2.05036 29.1869 2.09238 29.118 2.14695 29.0597C2.20152 29.0014 2.26749 28.9549 2.34076 28.9231C2.41403 28.8914 2.49304 28.875 2.5729 28.875H3.22915V25.9583C3.22915 25.8036 3.29061 25.6552 3.4 25.5459C3.5094 25.4365 3.65777 25.375 3.81248 25.375H10.7396C10.8943 25.375 11.0426 25.4365 11.152 25.5459C11.2614 25.6552 11.3229 25.8036 11.3229 25.9583ZM31.0092 10.5386C30.9893 10.8487 30.718 11.0833 30.4072 11.0833H29.7708V12.3958C29.7708 12.5505 29.7094 12.6989 29.6 12.8083C29.4906 12.9177 29.3422 12.9792 29.1875 12.9792H3.81248C3.65777 12.9792 3.5094 12.9177 3.4 12.8083C3.29061 12.6989 3.22915 12.5505 3.22915 12.3958V11.0833H2.59273C2.28196 11.0833 2.01071 10.8487 1.9908 10.5386C1.98551 10.4589 1.99664 10.379 2.0235 10.3038C2.05036 10.2285 2.09238 10.1597 2.14695 10.1014C2.20152 10.043 2.26749 9.99657 2.34076 9.9648C2.41403 9.93303 2.49304 9.91665 2.5729 9.91667H30.4271C30.5069 9.91665 30.5859 9.93303 30.6592 9.9648C30.7325 9.99657 30.7984 10.043 30.853 10.1014C30.9076 10.1597 30.9496 10.2285 30.9765 10.3038C31.0033 10.379 31.0145 10.4589 31.0092 10.5386ZM27.5833 7.58333V8.16667C27.5833 8.32138 27.5219 8.46975 27.4125 8.57915C27.3031 8.68854 27.1547 8.75 27 8.75H5.99998C5.84527 8.75 5.6969 8.68854 5.5875 8.57915C5.47811 8.46975 5.41665 8.32138 5.41665 8.16667V7.58333C5.41665 7.42862 5.47811 7.28025 5.5875 7.17085C5.6969 7.06146 5.84527 7 5.99998 7H27C27.1547 7 27.3031 7.06146 27.4125 7.17085C27.5219 7.28025 27.5833 7.42862 27.5833 7.58333ZM18.6279 1.3125H14.3721C13.9209 1.3125 13.6406 0.822281 13.8692 0.433417L13.9552 0.287292C14.0069 0.199827 14.0805 0.127336 14.1687 0.0769597C14.2569 0.026583 14.3567 5.87379e-05 14.4583 0L18.5416 0C18.748 0 18.9398 0.109375 19.0448 0.287292L19.1307 0.433417C19.3595 0.822281 19.079 1.3125 18.6279 1.3125ZM25.1771 3.0625V5.25C25.1771 5.40471 25.1156 5.55308 25.0062 5.66248C24.8968 5.77187 24.7484 5.83333 24.5937 5.83333H8.40623C8.25152 5.83333 8.10315 5.77187 7.99375 5.66248C7.88436 5.55308 7.8229 5.40471 7.8229 5.25V3.0625C7.8229 2.90779 7.88436 2.75942 7.99375 2.65002C8.10315 2.54062 8.25152 2.47917 8.40623 2.47917H24.5937C24.7484 2.47917 24.8968 2.54062 25.0062 2.65002C25.1156 2.75942 25.1771 2.90779 25.1771 3.0625Z" fill="white"/>
</svg>
