<svg width="100" height="100" viewBox="0 0 100 100" fill="none" xmlns="http://www.w3.org/2000/svg">
<path fill-rule="evenodd" clip-rule="evenodd" d="M50.7213 13.1215C48.8297 12.1199 47.0443 10.9296 45.3922 9.5688C48.8469 6.72505 52.9145 4.59868 57.3666 3.41665C55.3592 5.15415 53.5578 7.51821 52.0359 10.3727C51.559 11.27 51.1204 12.187 50.7213 13.1215ZM64.1533 19.4848C60.0449 19.3254 55.9986 18.4288 52.2074 16.8377C50.6283 21.4241 49.6635 26.8424 49.5326 32.6823H64.1533V19.4848ZM78.8338 16.8377C75.0425 18.4288 70.9962 19.3254 66.8877 19.4848V32.6823H81.5086C81.3777 26.8426 80.4133 21.4241 78.8338 16.8377ZM64.1533 35.4165H49.5326C49.6635 41.2561 50.6281 46.6747 52.2074 51.2608C55.9986 49.6698 60.0449 48.7732 64.1533 48.6137V35.4163V35.4165ZM54.4393 56.4444C57.0295 61.3022 60.4303 64.5069 64.1533 65.1432V51.35C60.6184 51.4993 57.2396 52.2239 54.1088 53.4327C53.7984 53.5526 53.4899 53.6774 53.1834 53.8071C53.5632 54.7041 53.9822 55.584 54.4393 56.4442V56.4444ZM76.6018 56.4444C77.0589 55.5842 77.4779 54.7043 77.8576 53.8073C77.5511 53.6776 77.2426 53.5528 76.9322 53.4329C73.8012 52.2241 70.4225 51.4993 66.8875 51.3502V65.1434C70.6105 64.5073 74.0115 61.3024 76.6018 56.4446V56.4444ZM73.6744 64.6821C78.1266 63.5 82.1941 61.3735 85.6488 58.5299C83.9967 57.1691 82.2113 55.9788 80.3197 54.9772C79.9207 55.9118 79.4821 56.8291 79.0051 57.7264C77.4832 60.5807 75.6818 62.9448 73.6744 64.6823V64.6821ZM53.1832 14.2915C53.4893 14.4209 53.7977 14.5459 54.1086 14.6659C57.2396 15.8747 60.6184 16.5995 64.1531 16.7487V2.95552C60.4301 3.59185 57.0293 6.79673 54.4391 11.6543C53.9819 12.5145 53.5629 13.3944 53.1832 14.2915ZM81.3143 52.4208C83.5952 53.6004 85.7371 55.0313 87.7002 56.6868C87.7771 56.6114 87.8541 56.5356 87.9303 56.4592C93.3652 51.0245 96.8346 43.6245 97.183 35.4165H84.2434C84.108 41.6678 83.0494 47.4905 81.3143 52.4206V52.4208ZM52.0359 57.7262C51.5589 56.8289 51.1203 55.9118 50.7213 54.9772C48.8298 55.9789 47.0443 57.1692 45.3922 58.5299C48.8469 61.3737 52.9145 63.5 57.3666 64.6821C55.3592 62.9446 53.558 60.5805 52.0359 57.7262ZM46.7977 35.4165H44.6617V55.6272C46.2536 54.4131 47.9483 53.3402 49.7266 52.4206C47.9914 47.4905 46.933 41.6678 46.7977 35.4165ZM78.8336 51.2608C80.4129 46.6745 81.3775 41.2561 81.5084 35.4165H66.8875V48.6139C70.996 48.7733 75.0423 49.6699 78.8336 51.261V51.2608ZM84.2432 32.6821H97.1828C96.8344 24.4743 93.365 17.0743 87.9301 11.6395C87.8537 11.5633 87.777 11.4875 87.7 11.412C85.7369 13.0674 83.595 14.4983 81.3141 15.678C83.0492 20.6081 84.1078 26.4307 84.2432 32.6821ZM49.7268 15.678C47.4459 14.4983 45.3039 13.0674 43.3408 11.412C43.2637 11.4875 43.1869 11.5633 43.1105 11.6395C39.3381 15.412 36.5131 20.1315 35.0209 25.4106H37.102C41.1684 25.4106 44.5031 28.6518 44.6555 32.6823H46.7975C46.9328 26.4309 47.9914 20.6083 49.7266 15.6782L49.7268 15.678ZM79.0051 10.3725C79.482 11.2698 79.9206 12.187 80.3197 13.1215C82.2112 12.1198 83.9966 10.9295 85.6488 9.5688C82.1939 6.72505 78.1266 4.59868 73.6744 3.41665C75.6818 5.15415 77.4832 7.51821 79.0051 10.3727V10.3725ZM77.8578 14.2913C77.478 13.3943 77.0589 12.5144 76.602 11.6542C74.0117 6.79634 70.6109 3.59146 66.8877 2.95532V16.7485C70.4227 16.5993 73.8014 15.8747 76.9324 14.6657C77.2428 14.5458 77.5513 14.4209 77.8578 14.2913ZM88.6182 69.0217C86.4086 69.0217 84.6174 70.8129 84.6174 73.0225C84.6174 74.752 85.7146 76.2248 87.251 76.7836V85.9963H70.6C70.2374 85.9963 69.8896 86.1404 69.6332 86.3968C69.3769 86.6532 69.2328 87.0009 69.2328 87.3635C69.2328 87.7261 69.3769 88.0739 69.6332 88.3303C69.8896 88.5867 70.2374 88.7307 70.6 88.7307H88.6182C88.9808 88.7307 89.3285 88.5867 89.5849 88.3303C89.8413 88.0739 89.9854 87.7261 89.9854 87.3635V76.7836C91.5217 76.225 92.6189 74.752 92.6189 73.0225C92.6189 70.8129 90.8277 69.0217 88.6182 69.0217ZM65.4613 73.3118C63.2518 73.3118 61.4605 75.103 61.4605 77.3125C61.4605 79.042 62.5578 80.5149 64.0941 81.0737V90.2864H47.4432C47.0806 90.2864 46.7328 90.4304 46.4764 90.6868C46.22 90.9432 46.076 91.291 46.076 91.6536C46.076 92.0162 46.22 92.3639 46.4764 92.6203C46.7328 92.8767 47.0806 93.0207 47.4432 93.0207H65.4613C65.8239 93.0207 66.1717 92.8767 66.4281 92.6203C66.6845 92.3639 66.8285 92.0162 66.8285 91.6536V81.0737C68.3648 80.5151 69.4621 79.042 69.4621 77.3125C69.4621 75.103 67.6709 73.3118 65.4613 73.3118ZM10.9518 23.0813C11.3144 23.0813 11.6621 22.9373 11.9185 22.6809C12.1749 22.4245 12.3189 22.0767 12.3189 21.7141V8.32349H27.7389C28.2975 9.85981 29.7705 10.9571 31.5 10.9571C33.7096 10.9571 35.5008 9.16587 35.5008 6.9563C35.5008 4.74673 33.7096 2.95552 31.5 2.95552C29.7705 2.95552 28.2977 4.05278 27.7389 5.58911H10.9518C10.5892 5.58911 10.2414 5.73315 9.98501 5.98955C9.72861 6.24595 9.58457 6.5937 9.58457 6.9563V21.7141C9.58457 22.0767 9.72861 22.4245 9.98501 22.6809C10.2414 22.9373 10.5892 23.0813 10.9518 23.0813ZM2.81738 87.6358H41.9273V92.2192C41.9273 94.8731 39.7561 97.0444 37.1021 97.0444H7.64258C4.98867 97.0444 2.81738 94.8729 2.81738 92.2192V87.6358ZM19.334 92.1254C19.334 92.488 19.478 92.8358 19.7344 93.0922C19.9908 93.3486 20.3386 93.4926 20.7012 93.4926H24.0434C24.406 93.4926 24.7537 93.3486 25.0101 93.0922C25.2665 92.8358 25.4105 92.488 25.4105 92.1254C25.4105 91.7628 25.2665 91.4151 25.0101 91.1587C24.7537 90.9023 24.406 90.7582 24.0434 90.7582H20.7012C20.3386 90.7582 19.9908 90.9023 19.7344 91.1587C19.478 91.4151 19.334 91.7628 19.334 92.1254ZM41.9273 32.9702V84.9016H2.81738V32.9702C2.81738 30.3163 4.98887 28.145 7.64258 28.145H9.37344L11.6039 32.0084C12.2338 33.0987 13.3598 33.7483 14.6201 33.7483H30.1232C31.3828 33.7483 32.5107 33.0987 33.1414 32.0084L35.3717 28.145H37.102C39.7557 28.145 41.9272 30.3163 41.9272 32.9702H41.9273ZM33.1535 59.7944C33.1535 53.8565 28.3104 49.0133 22.3725 49.0133C16.4346 49.0133 11.5914 53.8565 11.5914 59.7944C11.5914 65.7323 16.4344 70.5754 22.3725 70.5754C28.3105 70.5754 33.1535 65.7323 33.1535 59.7944ZM13.9715 30.6407C14.1137 30.8891 14.333 31.0145 14.6201 31.0145H30.1232C30.4113 31.0145 30.6297 30.8893 30.7719 30.6407L32.2135 28.145H12.5305L13.9715 30.6407ZM26.0699 55.3422L20.3541 61.0581L18.8883 58.519C18.7074 58.208 18.4107 57.9812 18.0631 57.8883C17.7154 57.7954 17.3452 57.8439 17.0332 58.0232C16.7213 58.2025 16.493 58.498 16.3982 58.8451C16.3035 59.1922 16.3501 59.5627 16.5277 59.8756L18.885 63.9584C19.3301 64.7331 20.3986 64.8795 21.0318 64.2467L28.0031 57.2752C28.2522 57.0174 28.39 56.672 28.3869 56.3136C28.3837 55.9551 28.24 55.6122 27.9865 55.3587C27.733 55.1052 27.3901 54.9614 27.0316 54.9583C26.6731 54.9552 26.3278 55.0932 26.0699 55.3422Z" fill="url(#paint0_linear_4_31234)"/>
<defs>
<linearGradient id="paint0_linear_4_31234" x1="2.73461" y1="4.10161" x2="94.8244" y2="103.418" gradientUnits="userSpaceOnUse">
<stop stop-color="#D09A85"/>
<stop offset="0.5" stop-color="#B971B2"/>
<stop offset="1" stop-color="#5A46A7"/>
</linearGradient>
</defs>
</svg>
