<svg width="100" height="100" viewBox="0 0 100 100" fill="none" xmlns="http://www.w3.org/2000/svg">
<path d="M86.4545 60.5576H58.1172C55.9568 60.5576 54.1893 62.3252 54.1893 64.4856V84.967C54.1893 87.1274 55.9568 88.8949 58.1172 88.8949H86.4545C88.6148 88.8949 90.3824 87.1274 90.3824 84.967V64.4856C90.3824 62.3252 88.6148 60.5576 86.4545 60.5576ZM73.4578 76.7449V81.2867C73.4578 81.5975 73.3344 81.8956 73.1146 82.1154C72.8948 82.3352 72.5967 82.4586 72.2859 82.4586C71.9751 82.4586 71.6771 82.3352 71.4573 82.1154C71.2375 81.8956 71.1141 81.5975 71.1141 81.2867V76.7449C67.3979 75.8416 66.0512 71.1807 68.7893 68.4426C71.8979 65.334 77.2314 67.549 77.2314 71.9393C77.2314 74.2438 75.6453 76.2131 73.458 76.7448L73.4578 76.7449ZM74.1256 70.0998C75.1414 71.1157 75.1414 72.7633 74.1256 73.7791C72.4916 75.4131 69.6844 74.251 69.6844 71.9395C69.6844 69.628 72.4916 68.4657 74.1256 70.0998ZM93.4383 11.1051H6.56172C4.02695 11.1051 1.95312 13.1789 1.95312 15.7137V30.8811H98.0469V15.7137C98.0469 13.1789 95.973 11.1051 93.4385 11.1051H93.4383ZM11.7984 24.4063C9.91328 24.4063 8.38516 22.8781 8.38516 20.993C8.38516 19.1078 9.91328 17.5797 11.7984 17.5797C13.6836 17.5797 15.2117 19.1078 15.2117 20.993C15.2117 22.8781 13.6836 24.4063 11.7984 24.4063ZM24.9748 24.4063C23.0898 24.4063 21.5615 22.8781 21.5615 20.993C21.5615 19.1078 23.0896 17.5797 24.9748 17.5797C26.86 17.5797 28.3881 19.1078 28.3881 20.993C28.3881 22.8781 26.86 24.4063 24.9748 24.4063ZM38.1514 24.4063C36.2662 24.4063 34.7381 22.8781 34.7381 20.993C34.7381 19.1078 36.2662 17.5797 38.1514 17.5797C40.0365 17.5797 41.5646 19.1078 41.5646 20.993C41.5646 22.8781 40.0365 24.4063 38.1514 24.4063ZM88.2018 24.4063H53.0768C51.1994 24.4063 49.6635 22.8703 49.6635 20.993C49.6635 19.1156 51.1994 17.5797 53.0768 17.5797H88.2018C90.0791 17.5797 91.615 19.1156 91.615 20.993C91.615 22.8703 90.0791 24.4063 88.2018 24.4063ZM65.9213 51.4572V58.2139H60.7022V51.4572C60.7022 45.0862 65.9148 39.8735 72.2859 39.8735C78.657 39.8735 83.8697 45.0862 83.8697 51.4572H78.6506C78.6506 47.967 75.7762 45.0926 72.2859 45.0926C68.7957 45.0926 65.9213 47.967 65.9213 51.4572ZM1.95312 75.9233C1.95312 78.4578 4.02695 80.5317 6.56172 80.5317H51.8457V64.4856C51.8457 61.0315 54.6633 58.2139 58.1174 58.2139H58.3584V51.4572C58.3584 43.7926 64.6213 37.5297 72.2859 37.5297C79.9506 37.5297 86.2135 43.7926 86.2135 51.4572V53.801H76.3068V51.4572C76.3068 49.2606 74.4826 47.4364 72.2859 47.4364C70.0893 47.4364 68.265 49.2608 68.265 51.4572V58.2139H86.4547C89.9088 58.2139 92.7264 61.0315 92.7264 64.4856V80.5317H93.4385C95.9732 80.5317 98.0469 78.4578 98.0469 75.9233V33.2248H1.95312V75.9233ZM37.7078 49.6506C37.4881 49.4309 37.3646 49.1328 37.3646 48.8221C37.3646 48.5113 37.4881 48.2133 37.7078 47.9936C37.9275 47.7738 38.2256 47.6504 38.5363 47.6504C38.8471 47.6504 39.1451 47.7738 39.3648 47.9936L47.4209 56.0496C47.5297 56.1584 47.616 56.2876 47.6749 56.4298C47.7338 56.5719 47.7641 56.7243 47.7641 56.8782C47.7641 57.032 47.7338 57.1844 47.6749 57.3265C47.616 57.4687 47.5297 57.5979 47.4209 57.7067L39.3648 65.7627C39.256 65.8715 39.1269 65.9578 38.9847 66.0167C38.8426 66.0756 38.6902 66.1059 38.5363 66.1059C38.3825 66.1059 38.2301 66.0756 38.0879 66.0167C37.9458 65.9578 37.8166 65.8715 37.7078 65.7627C37.599 65.6539 37.5127 65.5247 37.4538 65.3826C37.3949 65.2404 37.3646 65.0881 37.3646 64.9342C37.3646 64.7803 37.3949 64.628 37.4538 64.4858C37.5127 64.3437 37.599 64.2145 37.7078 64.1057L44.9354 56.8782L37.7078 49.6506ZM21.9652 65.1157L32.1537 47.4688C32.3121 47.2064 32.5671 47.0167 32.8639 46.9405C33.1608 46.8642 33.4757 46.9076 33.7408 47.0612C34.006 47.2147 34.2003 47.4663 34.2819 47.7617C34.3635 48.0571 34.3259 48.3727 34.1771 48.6406L23.9887 66.2875C23.8303 66.5499 23.5753 66.7396 23.2784 66.8158C22.9816 66.8921 22.6667 66.8487 22.4015 66.6951C22.1363 66.5415 21.942 66.29 21.8604 65.9946C21.7789 65.6992 21.8165 65.3836 21.9652 65.1157ZM8.72148 56.0496L16.7775 47.9936C16.8863 47.8848 17.0155 47.7985 17.1577 47.7396C17.2998 47.6807 17.4522 47.6504 17.6061 47.6504C17.7599 47.6504 17.9123 47.6807 18.0544 47.7396C18.1966 47.7985 18.3258 47.8848 18.4346 47.9936C18.5434 48.1024 18.6297 48.2315 18.6886 48.3737C18.7474 48.5159 18.7778 48.6682 18.7778 48.8221C18.7778 48.976 18.7474 49.1283 18.6886 49.2705C18.6297 49.4126 18.5434 49.5418 18.4346 49.6506L11.207 56.8782L18.4346 64.1057C18.5434 64.2145 18.6297 64.3437 18.6886 64.4858C18.7474 64.628 18.7778 64.7803 18.7778 64.9342C18.7778 65.0881 18.7474 65.2404 18.6886 65.3826C18.6297 65.5247 18.5434 65.6539 18.4346 65.7627C18.3258 65.8715 18.1966 65.9578 18.0544 66.0167C17.9123 66.0756 17.7599 66.1059 17.6061 66.1059C17.4522 66.1059 17.2998 66.0756 17.1577 66.0167C17.0155 65.9578 16.8863 65.8715 16.7775 65.7627L8.72148 57.7067C8.61268 57.5979 8.52637 57.4687 8.46749 57.3265C8.4086 57.1844 8.37829 57.032 8.37829 56.8782C8.37829 56.7243 8.4086 56.5719 8.46749 56.4298C8.52637 56.2876 8.61268 56.1584 8.72148 56.0496Z" fill="url(#paint0_linear_4_31220)"/>
<defs>
<linearGradient id="paint0_linear_4_31220" x1="-1.26953" y1="7.91018" x2="107.91" y2="92.8711" gradientUnits="userSpaceOnUse">
<stop stop-color="#D09A85"/>
<stop offset="0.561891" stop-color="#B971B2"/>
<stop offset="1" stop-color="#5A46A7"/>
</linearGradient>
</defs>
</svg>
