<svg width="70" height="70" viewBox="0 0 70 70" fill="none" xmlns="http://www.w3.org/2000/svg">
<path d="M68.6647 3.58569H38.1996C37.5009 3.58569 36.9327 4.15526 36.9327 4.85677V22.1867C36.9327 22.8852 37.5008 23.4535 38.1996 23.4535H43.8854C44.1455 23.4536 44.3948 23.5569 44.5787 23.7408C44.7626 23.9246 44.8659 24.174 44.866 24.4341V29.5154L50.2937 25.4975L50.3457 25.4596L52.7951 23.6458C52.9636 23.521 53.1676 23.4536 53.3773 23.4535H68.6646C69.3632 23.4535 69.9314 22.8853 69.9314 22.1867V4.85677C69.9316 4.15526 69.3634 3.58569 68.6647 3.58569ZM48.4126 19.6895C48.4126 20.2311 47.9748 20.6702 47.4334 20.6702H43.5838C43.3237 20.6702 43.0743 20.5668 42.8904 20.3829C42.7065 20.199 42.6032 19.9496 42.6031 19.6895V15.0362C42.6031 14.4946 43.0423 14.057 43.5838 14.057H47.4334C47.562 14.0569 47.6894 14.0821 47.8083 14.1313C47.9271 14.1805 48.0351 14.2526 48.126 14.3435C48.217 14.4345 48.2891 14.5425 48.3383 14.6613C48.3874 14.7802 48.4127 14.9075 48.4126 15.0362V19.6895ZM56.339 19.6895C56.339 19.9496 56.2357 20.1991 56.0518 20.383C55.8678 20.5669 55.6184 20.6702 55.3583 20.6702H51.5046C50.9631 20.6702 50.5253 20.2311 50.5253 19.6895V11.0407C50.5253 10.4992 50.9629 10.06 51.5046 10.06H55.3583C55.6184 10.06 55.8678 10.1634 56.0517 10.3473C56.2356 10.5312 56.339 10.7806 56.339 11.0407V19.6895ZM64.2598 19.6895C64.2598 20.2311 63.822 20.6702 63.2805 20.6702H59.431C59.1709 20.6702 58.9215 20.5668 58.7376 20.3829C58.5537 20.199 58.4504 19.9496 58.4503 19.6895V7.3538C58.4503 7.22502 58.4757 7.0975 58.525 6.97853C58.5743 6.85955 58.6465 6.75145 58.7376 6.6604C58.8287 6.56935 58.9368 6.49712 59.0557 6.44785C59.1747 6.39858 59.3022 6.37323 59.431 6.37325H63.2805C63.4092 6.37329 63.5366 6.39868 63.6555 6.44799C63.7744 6.49729 63.8824 6.56954 63.9733 6.6606C64.0643 6.75166 64.1364 6.85975 64.1855 6.9787C64.2347 7.09764 64.2599 7.2251 64.2598 7.3538V19.6895ZM67.5677 43.3367C67.6645 43.575 67.6645 43.8418 67.5677 44.0802C64.898 50.5979 60.354 56.1577 54.4282 60.1573C48.442 64.1949 41.4361 66.3567 34.1494 66.4129C34.0512 66.4142 33.9544 66.4142 33.8561 66.4142C33.7578 66.4142 33.661 66.4142 33.5629 66.4129C26.2763 66.3567 19.2702 64.1949 13.2827 60.1573C7.35554 56.1577 2.81155 50.5979 0.141846 44.0802C0.0435383 43.8421 0.0435383 43.5747 0.141846 43.3367C2.81019 36.8174 7.35554 31.2577 13.2841 27.2581C19.2703 23.2206 26.275 21.0615 33.5629 21.0054C33.661 21.0041 33.7578 21.0041 33.8561 21.0041C33.9657 21.0041 34.0737 21.0041 34.183 21.0069C34.4454 21.0083 34.7091 21.0125 34.9715 21.021V22.1868C34.9715 22.4618 35.0065 22.7297 35.0724 22.9851C35.0725 22.991 35.074 22.9967 35.0766 23.0019C34.7767 22.9834 34.4765 22.9717 34.1761 22.9668C34.0694 22.9654 33.9628 22.9639 33.8561 22.9639C33.7663 22.9639 33.678 22.9639 33.5883 22.9653C22.2739 23.1098 13.1117 32.3605 13.1117 43.7084C13.1117 55.0578 22.2739 64.3071 33.5883 64.4515C33.678 64.4529 33.7663 64.4529 33.8561 64.4529C33.946 64.4529 34.0343 64.4529 34.1241 64.4515C45.437 64.307 54.5965 55.0577 54.5965 43.7084C54.5965 38.1951 52.4879 33.0591 48.6398 29.1604L50.2292 27.9834L50.9726 27.4335L52.6912 26.1611C59.3945 30.1537 64.6468 36.203 67.5677 43.3367ZM36.344 31.1423C36.3784 31.0183 36.4369 30.9022 36.5162 30.8008C36.5955 30.6993 36.694 30.6145 36.8061 30.5512C36.9181 30.4878 37.0416 30.4472 37.1694 30.4316C37.2972 30.416 37.4268 30.4257 37.5508 30.4602C42.1584 31.74 45.8193 35.4007 47.1046 40.0135C47.1392 40.1374 47.149 40.267 47.1335 40.3948C47.1179 40.5226 47.0774 40.6461 47.0142 40.7582C46.9509 40.8703 46.8662 40.9689 46.7649 41.0482C46.6636 41.1276 46.5476 41.1863 46.4236 41.2208C46.3377 41.2448 46.249 41.257 46.1599 41.2572C45.9458 41.257 45.7378 41.1868 45.5674 41.0573C45.397 40.9277 45.2737 40.746 45.2162 40.5398C44.114 36.5848 40.9758 33.4463 37.0261 32.3491C36.9021 32.3147 36.786 32.2561 36.6846 32.1769C36.5832 32.0976 36.4984 31.9991 36.4351 31.887C36.3717 31.7749 36.3311 31.6515 36.3155 31.5237C36.2999 31.3959 36.3095 31.2663 36.344 31.1423ZM20.6045 47.4035C20.57 47.2795 20.5602 47.1499 20.5757 47.0221C20.5912 46.8944 20.6317 46.7709 20.695 46.6588C20.7582 46.5467 20.8429 46.4481 20.9442 46.3687C21.0456 46.2893 21.1615 46.2307 21.2855 46.1961C21.4095 46.1615 21.5391 46.1517 21.6669 46.1672C21.7947 46.1827 21.9182 46.2232 22.0304 46.2865C22.1425 46.3497 22.2411 46.4344 22.3205 46.5358C22.3999 46.6371 22.4585 46.7531 22.493 46.8771C23.5951 50.8312 26.7334 53.9697 30.6833 55.0678C30.9338 55.1375 31.1463 55.3038 31.2742 55.5302C31.4021 55.7565 31.4348 56.0244 31.3651 56.2749C31.2955 56.5254 31.1292 56.738 30.9028 56.8658C30.6764 56.9937 30.4085 57.0264 30.158 56.9567C25.5503 55.6758 21.8897 52.0152 20.6045 47.4035ZM21.2854 41.2208C21.1614 41.1863 21.0454 41.1276 20.9441 41.0482C20.8428 40.9689 20.7581 40.8703 20.6948 40.7582C20.6316 40.6461 20.5911 40.5226 20.5755 40.3948C20.56 40.267 20.5698 40.1374 20.6044 40.0135C21.8896 35.4018 25.5503 31.7413 30.1579 30.4602C30.6789 30.316 31.2199 30.6205 31.365 31.142C31.3995 31.2661 31.4092 31.3957 31.3936 31.5235C31.378 31.6512 31.3374 31.7747 31.2741 31.8868C31.2108 31.9989 31.126 32.0974 31.0246 32.1767C30.9232 32.2561 30.8072 32.3146 30.6832 32.3491C26.7331 33.4474 23.5949 36.5858 22.4929 40.5398C22.4355 40.746 22.3121 40.9277 22.1418 41.0572C21.9714 41.1867 21.7633 41.257 21.5493 41.2572C21.4601 41.2571 21.3713 41.2449 21.2854 41.2208ZM36.344 56.2748C36.3095 56.1507 36.2999 56.0211 36.3155 55.8934C36.3311 55.7656 36.3717 55.6422 36.4351 55.5301C36.4984 55.418 36.5832 55.3195 36.6846 55.2402C36.786 55.1609 36.9021 55.1024 37.0261 55.068C40.9758 53.9709 44.114 50.8323 45.2161 46.8773C45.2889 46.6302 45.4559 46.4217 45.6811 46.2968C45.9064 46.1719 46.1717 46.1407 46.4198 46.2098C46.6679 46.279 46.8788 46.443 47.007 46.6663C47.1351 46.8897 47.1702 47.1546 47.1047 47.4036C45.8193 52.0165 42.1584 55.6772 37.5508 56.957C37.4652 56.9809 37.3768 56.993 37.2879 56.9931C37.0737 56.9929 36.8655 56.9225 36.6951 56.7928C36.5246 56.6631 36.4013 56.4811 36.344 56.2748ZM33.8566 33.4984C33.5966 33.4984 33.3472 33.3951 33.1634 33.2113C32.9796 33.0274 32.8763 32.7781 32.8763 32.5181V29.3527C32.8763 29.0927 32.9796 28.8433 33.1634 28.6595C33.3472 28.4757 33.5966 28.3724 33.8566 28.3724C34.1165 28.3724 34.3659 28.4757 34.5497 28.6595C34.7335 28.8433 34.8368 29.0927 34.8368 29.3527V32.5181C34.8368 32.7781 34.7335 33.0274 34.5497 33.2113C34.3659 33.3951 34.1165 33.4984 33.8566 33.4984ZM33.8566 53.9187C34.1165 53.9187 34.3659 54.022 34.5497 54.2058C34.7335 54.3897 34.8368 54.639 34.8368 54.899V58.0644C34.8368 58.3244 34.7335 58.5737 34.5497 58.7576C34.3659 58.9414 34.1165 59.0447 33.8566 59.0447C33.5966 59.0447 33.3472 58.9414 33.1634 58.7576C32.9796 58.5737 32.8763 58.3244 32.8763 58.0644V54.899C32.8763 54.639 32.9796 54.3897 33.1634 54.2058C33.3472 54.022 33.5966 53.9187 33.8566 53.9187ZM48.2124 44.6887H45.047C44.5056 44.6887 44.0667 44.25 44.0667 43.7084C44.0667 43.1669 44.5056 42.7281 45.047 42.7281H48.2124C48.3412 42.7281 48.4686 42.7535 48.5876 42.8028C48.7065 42.852 48.8146 42.9242 48.9056 43.0153C48.9966 43.1063 49.0688 43.2143 49.1181 43.3333C49.1674 43.4522 49.1927 43.5797 49.1927 43.7084C49.1927 43.8371 49.1674 43.9646 49.1181 44.0835C49.0688 44.2025 48.9966 44.3105 48.9056 44.4016C48.8146 44.4926 48.7065 44.5648 48.5876 44.6141C48.4686 44.6633 48.3412 44.6887 48.2124 44.6887ZM19.4966 42.7283H22.666C23.2074 42.7283 23.6461 43.1671 23.6461 43.7085C23.6461 44.25 23.2074 44.6888 22.666 44.6888H19.4966C18.9552 44.6888 18.5164 44.2501 18.5164 43.7085C18.5164 43.167 18.9553 42.7283 19.4966 42.7283ZM33.8566 51.1946C29.7287 51.1946 26.3704 47.8362 26.3704 43.7084C26.3704 39.5806 29.7286 36.2222 33.8566 36.2222C37.9844 36.2222 41.3427 39.5806 41.3427 43.7084C41.3427 47.8364 37.9844 51.1946 33.8566 51.1946Z" fill="url(#paint0_linear_4_2158)"/>
<defs>
<linearGradient id="paint0_linear_4_2158" x1="3.96473" y1="12.0996" x2="62.5487" y2="56.6699" gradientUnits="userSpaceOnUse">
<stop stop-color="#D09A85"/>
<stop offset="0.495192" stop-color="#B971B2"/>
<stop offset="1" stop-color="#5A46A7"/>
</linearGradient>
</defs>
</svg>
