<svg width="70" height="70" viewBox="0 0 70 70" fill="none" xmlns="http://www.w3.org/2000/svg">
<path d="M65.625 60.1563V64.5313C65.6241 64.8211 65.5086 65.0988 65.3037 65.3038C65.0988 65.5087 64.8211 65.6242 64.5312 65.6251H5.46875C5.17894 65.6242 4.90124 65.5087 4.69631 65.3038C4.49138 65.0988 4.37587 64.8211 4.375 64.5313V60.1563C4.3776 59.2869 4.72413 58.4538 5.33892 57.839C5.95372 57.2242 6.78681 56.8777 7.65625 56.8751H62.3438C63.2132 56.8777 64.0463 57.2242 64.6611 57.839C65.2759 58.4538 65.6224 59.2869 65.625 60.1563ZM61.25 50.3126C61.2474 49.4431 60.9009 48.61 60.2861 47.9953C59.6713 47.3805 58.8382 47.0339 57.9688 47.0313H12.0312C11.1618 47.0339 10.3287 47.3805 9.71392 47.9953C9.09913 48.61 8.7526 49.4431 8.75 50.3126V54.6876H61.25V50.3126ZM56.875 40.4688C56.8724 39.5994 56.5259 38.7663 55.9111 38.1515C55.2963 37.5367 54.4632 37.1902 53.5938 37.1876H16.4062C15.5368 37.1902 14.7037 37.5367 14.0889 38.1515C13.4741 38.7663 13.1276 39.5994 13.125 40.4688V44.8438H56.875V40.4688ZM26.6 23.1001L24.7844 31.1173C24.7159 31.4276 24.7177 31.7493 24.7895 32.0589C24.8614 32.3684 25.0015 32.658 25.1996 32.9065C25.3978 33.1549 25.6489 33.356 25.9347 33.4949C26.2205 33.6338 26.5338 33.7071 26.8516 33.7095C27.2339 33.7099 27.6089 33.6038 27.9344 33.4032L35 29.1923L42.0656 33.4032C42.4222 33.6091 42.8307 33.7073 43.2419 33.6859C43.6531 33.6645 44.0493 33.5244 44.3825 33.2825C44.7157 33.0407 44.9718 32.7075 45.1196 32.3232C45.2675 31.939 45.3008 31.5201 45.2156 31.1173L43.4 23.1001L49.5906 17.6751C49.9009 17.4009 50.1243 17.042 50.2334 16.6426C50.3426 16.2432 50.3326 15.8205 50.2048 15.4267C50.077 15.0328 49.8369 14.6849 49.5141 14.4256C49.1912 14.1663 48.7997 14.007 48.3875 13.9673L40.1953 13.2235L36.9469 5.65476C36.7823 5.27511 36.5104 4.95185 36.1644 4.72477C35.8185 4.49769 35.4138 4.37671 35 4.37671C34.5862 4.37671 34.1815 4.49769 33.8356 4.72477C33.4896 4.95185 33.2177 5.27511 33.0531 5.65476L29.8047 13.2235L21.6125 13.9673C21.2003 14.007 20.8088 14.1663 20.4859 14.4256C20.1631 14.6849 19.923 15.0328 19.7952 15.4267C19.6674 15.8205 19.6574 16.2432 19.7666 16.6426C19.8757 17.042 20.0991 17.4009 20.4094 17.6751L26.6 23.1001Z" fill="url(#paint0_linear_4_2162)"/>
<defs>
<linearGradient id="paint0_linear_4_2162" x1="13.4668" y1="9.29695" x2="62.4805" y2="62.754" gradientUnits="userSpaceOnUse">
<stop stop-color="#D09A85"/>
<stop offset="0.490385" stop-color="#B971B2"/>
<stop offset="1" stop-color="#5A46A7"/>
</linearGradient>
</defs>
</svg>
