<svg width="100" height="100" viewBox="0 0 100 100" fill="none" xmlns="http://www.w3.org/2000/svg">
<path d="M67.8307 27.4004V5.33169L91.4615 28.967H69.392C68.5311 28.967 67.8307 28.2641 67.8307 27.4004ZM69.392 32.0897C66.8092 32.0897 64.7082 29.986 64.7082 27.4002V3.12329H33.4662C27.5529 3.12329 22.7422 7.93403 22.7422 13.8473V41.2524H74.1867C76.5344 41.2524 78.4441 43.1624 78.4441 45.51V69.9864C78.4441 72.334 76.5342 74.244 74.1867 74.244H22.742V86.1528C22.742 92.0661 27.5527 96.8768 33.466 96.8768H82.9449C88.8582 96.8768 93.6689 92.0661 93.6689 86.1528V32.0897H69.392ZM58.5461 50.936H55.0748V64.5663H58.5461C60.4602 64.5663 62.0174 63.009 62.0174 61.0952V54.4073C62.0174 52.493 60.4602 50.936 58.5461 50.936ZM74.1865 71.1213H7.46699C6.85176 71.1213 6.33203 70.6018 6.33203 69.9864V45.51C6.33203 44.895 6.85176 44.375 7.46699 44.375H74.1865C74.4874 44.3754 74.7759 44.495 74.9887 44.7078C75.2015 44.9206 75.3212 45.2091 75.3215 45.51V69.9864C75.3212 70.2873 75.2015 70.5758 74.9887 70.7886C74.7759 71.0014 74.4874 71.121 74.1865 71.1213ZM29.7014 54.4071C29.7014 50.7713 26.7434 47.8131 23.1076 47.8131H18.0748C17.6607 47.8131 17.2636 47.9776 16.9708 48.2704C16.678 48.5632 16.5135 48.9604 16.5135 49.3745V66.1274C16.5135 66.5415 16.678 66.9386 16.9708 67.2314C17.2636 67.5242 17.6607 67.6887 18.0748 67.6887C18.4889 67.6887 18.886 67.5242 19.1788 67.2314C19.4716 66.9386 19.6361 66.5415 19.6361 66.1274V61.2112H23.1074C26.7434 61.2112 29.7012 58.253 29.7012 54.6172L29.7014 54.4071ZM37.2863 53.56C37.2863 52.1131 38.466 50.9358 39.916 50.9358H42.402C43.4094 50.9358 44.2289 51.7528 44.2289 52.7571C44.2289 53.1712 44.3934 53.5683 44.6862 53.8611C44.979 54.1539 45.3761 54.3184 45.7902 54.3184C46.2043 54.3184 46.6015 54.1539 46.8943 53.8611C47.1871 53.5683 47.3516 53.1712 47.3516 52.7571C47.3516 50.0309 45.1313 47.8131 42.402 47.8131H39.916C36.7441 47.8131 34.1637 50.3913 34.1637 53.56C34.1637 56.3647 35.6033 57.7327 36.8109 58.3864C38.3445 59.2163 40.2812 59.3124 41.6045 59.3124C43.0516 59.3124 44.2289 60.4895 44.2289 61.9366C44.2289 63.3866 43.0516 64.5663 41.6045 64.5663H39.1131C38.1057 64.5663 37.2861 63.7469 37.2861 62.7393C37.2861 62.3252 37.1216 61.9281 36.8288 61.6353C36.536 61.3425 36.1389 61.178 35.7248 61.178C35.3107 61.178 34.9136 61.3425 34.6208 61.6353C34.328 61.9281 34.1635 62.3252 34.1635 62.7393C34.1635 65.4686 36.3838 67.6889 39.1129 67.6889H41.6043C44.7732 67.6889 47.3512 65.1082 47.3512 61.9366C47.3512 58.7676 44.7732 56.1897 41.6043 56.1897C37.6111 56.1897 37.2863 54.9987 37.2863 53.56ZM65.1398 54.4071C65.1398 50.7713 62.1818 47.8131 58.5459 47.8131H53.5133C53.3082 47.8131 53.1052 47.8535 52.9158 47.932C52.7264 48.0104 52.5542 48.1255 52.4093 48.2704C52.2643 48.4154 52.1493 48.5875 52.0708 48.777C51.9923 48.9664 51.952 49.1694 51.952 49.3745V66.1274C51.952 66.3324 51.9923 66.5355 52.0708 66.7249C52.1493 66.9143 52.2643 67.0864 52.4093 67.2314C52.5542 67.3764 52.7264 67.4914 52.9158 67.5699C53.1052 67.6483 53.3082 67.6887 53.5133 67.6887H58.5459C62.1818 67.6887 65.1398 64.7305 65.1398 61.0948V54.4071ZM23.1074 50.936H19.6361V58.0887H23.1074C25.0215 58.0887 26.5787 56.5315 26.5787 54.6176V54.4073C26.5787 52.493 25.0215 50.936 23.1074 50.936Z" fill="url(#paint0_linear_4_54992)"/>
<defs>
<linearGradient id="paint0_linear_4_54992" x1="14.3243" y1="3.12329" x2="105.371" y2="105.566" gradientUnits="userSpaceOnUse">
<stop stop-color="#D09A85"/>
<stop offset="0.5" stop-color="#B971B2"/>
<stop offset="1" stop-color="#5A46A7"/>
</linearGradient>
</defs>
</svg>
