<svg width="100" height="100" viewBox="0 0 100 100" fill="none" xmlns="http://www.w3.org/2000/svg">
<path d="M2.75371 77.1183H6.20371V89.8085L2.75371 85.4126V77.1183ZM28.4045 43.6902C27.7711 44.4546 26.7424 45.3662 25.4396 45.3662C24.1311 45.3662 23.1061 44.4562 22.4768 43.6927L21.6008 42.6302L19.4756 44.3822L20.3516 45.4447C21.774 47.1701 23.5811 48.1201 25.4395 48.1201C27.3178 48.1201 29.0764 47.1959 30.5254 45.447L31.4039 44.3867L29.283 42.6294L28.4045 43.6902ZM15.6381 37.6052H18.3926V32.9777H15.6381V37.6052ZM32.4811 37.6052H35.2355V32.9777H32.4811V37.6052ZM45.1104 94.0275H42.3547V73.2769C42.3546 73.0952 42.2826 72.921 42.1543 72.7923C42.026 72.6636 41.852 72.591 41.6703 72.5904H9.64355C9.27188 72.5904 8.95918 72.905 8.95918 73.2769V94.0275H0V96.7832H51.3197V94.0275H45.301H45.1104ZM100 19.4908V75.7418C99.9996 76.1068 99.8544 76.4567 99.5963 76.7148C99.3382 76.9729 98.9883 77.1181 98.6232 77.1185H51.3197V74.3648H97.2443V28.1548H51.9275V28.0427C51.9275 27.1773 51.8686 26.2941 51.7506 25.4011C51.5559 23.9103 51.2018 22.3878 50.7004 20.8675C50.3934 19.9319 50.0382 19.0128 49.6363 18.1138H98.6234C98.9886 18.1139 99.3387 18.259 99.5968 18.5173C99.855 18.7755 100 19.1256 100 19.4908ZM91.151 21.7546V24.5084H94.2744V21.7546H91.151ZM84.8727 21.7546V24.5084H87.9902V21.7546H84.8727ZM78.5904 21.7546V24.5084H81.7119V21.7546H78.5904ZM9.19512 50.3884C4.91523 45.4123 2.55879 38.8093 2.55879 31.7955C2.55879 26.8349 5.26523 15.1773 10.2297 11.5011C11.6754 10.4332 13.1662 10.1539 14.791 10.6496C15.2395 10.7853 15.7252 10.6849 16.0832 10.382C16.4412 10.0791 16.6182 9.61499 16.5572 9.15073C16.4451 8.30698 16.7402 7.49663 17.4619 6.67241C19.3324 4.53647 23.2604 3.21655 25.8291 3.21655C37.7209 3.21655 48.352 16.082 49.1287 26.8052C49.1582 27.2203 49.174 27.6333 49.174 28.0423V28.1544C49.1484 40.0068 45.077 46.2634 41.5289 50.388C41.3844 50.5568 41.2827 50.7579 41.2324 50.9743C41.182 51.1907 41.1845 51.416 41.2397 51.6312C41.5203 52.7195 41.8638 53.7906 42.2684 54.8392C40.4864 53.9508 38.6386 53.2012 36.7414 52.597C35.8309 53.3798 34.8709 54.0664 33.8736 54.6445C39.0742 55.9544 44.0109 58.4818 48.5662 62.1697V85.4125L45.1104 89.8123V73.2767C45.1104 71.3787 43.5664 69.8367 41.6703 69.8367H9.64355C7.74746 69.8367 6.20352 71.3787 6.20352 73.2767V74.3644H2.75371V62.1697C7.2166 58.5566 12.0531 56.0546 17.1453 54.723C16.1363 54.1486 15.1727 53.472 14.2619 52.7011C12.2322 53.364 10.2455 54.2039 8.3082 55.2167C8.78052 54.048 9.17347 52.8487 9.48438 51.6271C9.53941 51.4126 9.54185 51.188 9.49149 50.9723C9.44114 50.7567 9.33946 50.5564 9.19512 50.3884ZM30.8818 56.0294C29.1313 56.6451 27.3021 56.9636 25.4395 56.9636C23.5572 56.9636 21.7279 56.6371 19.9932 56.0253V58.1337C19.9932 61.1332 22.4359 63.5761 25.4395 63.5761C28.4389 63.5761 30.8818 61.1332 30.8818 58.1337V56.0294ZM42.2584 35.1392C39.7055 31.7974 35.575 28.1843 29.9635 28.9513C29.3046 29.043 28.6402 29.0896 27.975 29.091C22.5424 29.091 20.0584 25.6982 18.5104 23.5818C18.0973 23.0173 17.5406 22.2562 17.2516 22.0869C17.2043 22.1105 17.1139 22.1617 16.982 22.2699C13.599 25.057 12.6293 28.1902 11.6912 31.2191C11.0402 33.3277 10.3676 35.499 8.90605 37.4009C10.5918 47.1763 17.4699 54.208 25.4396 54.208C34.025 54.2082 41.3359 45.8724 42.2584 35.1392ZM54.4314 35.625V66.1785C54.4315 66.5436 54.5766 66.8937 54.8347 67.1519C55.0929 67.4101 55.4431 67.5552 55.8082 67.5552H91.9867V64.8015H88.1789V40.672C88.179 40.4912 88.1435 40.3121 88.0744 40.145C88.0052 39.9779 87.9038 39.8261 87.776 39.6982C87.6481 39.5704 87.4963 39.4689 87.3292 39.3998C87.1621 39.3307 86.983 39.2951 86.8021 39.2953H81.3225C80.5613 39.2953 79.9438 39.9109 79.9438 40.672V64.8017H77.9434V50.9017C77.9429 50.5367 77.7978 50.1868 77.5397 49.9287C77.2816 49.6706 76.9316 49.5254 76.5666 49.525H71.0908C70.7257 49.525 70.3755 49.6701 70.1174 49.9283C69.8592 50.1864 69.7141 50.5366 69.7141 50.9017V64.8017H67.7117V56.9578C67.7118 56.7769 67.6763 56.5978 67.6072 56.4308C67.538 56.2637 67.4366 56.1118 67.3088 55.984C67.1809 55.8561 67.0291 55.7547 66.862 55.6855C66.6949 55.6164 66.5158 55.5809 66.335 55.581H60.8553C60.0941 55.581 59.4766 56.1966 59.4766 56.9578V64.8017H57.1871V35.625H54.4314Z" fill="url(#paint0_linear_4_31265)"/>
<defs>
<linearGradient id="paint0_linear_4_31265" x1="-3.32031" y1="7.61714" x2="100" y2="96.875" gradientUnits="userSpaceOnUse">
<stop stop-color="#D09A85"/>
<stop offset="0.527451" stop-color="#B971B2"/>
<stop offset="1" stop-color="#5A46A7"/>
</linearGradient>
</defs>
</svg>
